<svg xmlns="http://www.w3.org/2000/svg" viewBox="-0.13938768208026886 -0.039884187281131744 199.07876586914062 169.47976684570312" role="img" preserveAspectRatio="xMidYMid meet" style="stroke-width: 0px;">
    <g>
        <path d="M198.7 133.9l-9.6-19.1 9.7-19.3c.2-.5.2-.8-.1-1.2s-.8-.5-1.3-.5h-17v-3.5c2.9-1.7 4.8-3.5 4.8-5.5 0-4.7-12.1-8.3-12.9-12.9-.8-4.6 9.5-12.2 7.9-16.6-1.6-4.4-14.4-3.6-16.7-7.6-2.3-4 4.8-14.7 1.8-18.3-3-3.6-14.7 1.6-18.3-1.4-3.6-3-.5-15.5-4.6-17.8-4-2.3-13.3 6.5-17.7 4.9C120.4 13.5 119 .8 114.3 0c-4.5-.8-10.2 10.7-14.9 10.7C94.8 10.7 89.1-.8 84.6 0c-4.6.8-6.1 13.6-10.4 15.1-4.4 1.6-13.7-7.2-17.7-4.9S55.5 25 51.9 28c-3.6 3-15.3-2.2-18.3 1.4s4.1 14.2 1.8 18.3c-2.3 4-15.1 3.2-16.7 7.6-1.6 4.3 8.8 11.9 7.9 16.6-.8 4.5-13.4 8.1-13.4 12.9 0 1.8 2.3 3.5 4.2 5.1v3.9h-16c-.5 0-1 0-1.3.5s-.3.9-.1 1.3l9.7 19.3L0 134.2c-.2.5-.2 1.3.1 1.7s.8.9 1.3.9h31.4c-.1 1.2 0 2.7.7 3.5 3 3.6 14.7-1.7 18.3 1.3 3.6 3 .5 15.4 4.6 17.7 4 2.3 13.3-6.6 17.7-5 4.3 1.6 5.7 14.3 10.4 15.1 4.5.8 10.2-10.7 14.9-10.7 4.7 0 10.4 11.5 14.9 10.7 4.6-.8 6.1-13.6 10.4-15.2 4.4-1.6 13.7 7.2 17.7 4.9s1-14.8 4.6-17.8c3.6-3 15.3 2.4 18.3-1.2.7-.8.8-2.4.7-3.5h31.4c.8 0 1.5-.9 1.5-1.8.1-.1 0-.7-.2-.9zM20.5 123.7v-37h157v37h-157zm152.6 3l-12.6 5.6v-5.6h12.6zm-32.5 0c-10.6 10.4-25.1 17-41.1 17s-30.6-6.6-41.1-17h82.2zm-103.1 5.6l-11.6-5.6h11.6v5.6zM41 83.7c.7-31.7 26.6-57.4 58.5-57.4 31.8 0 57.8 25.7 58.5 57.4H41zm58.5-65.2c36.2 0 65.6 29.2 66.3 65.2H161c-.7-33.3-28-60.4-61.5-60.4C66 23.4 38.7 50.4 38 83.7h-4.8c.7-36 30.1-65.2 66.3-65.2zm-86.7 97.2c.2-.4.2-.8 0-1.2L3.9 96.7h13.6v28c-.2 1.7 15.6 9 15.6 9H3.9l8.9-18zm86.7 35.9c-20.9 0-39.5-10.4-51.7-24.8h6.4c11.2 11.5 27.4 20 45.2 20s34-8.5 45.2-20h6.4c-12 14.4-30.6 24.8-51.5 24.8zm66.4-17.9s14.5-6.3 14.6-9v-28h14.6l-8.9 17.6c-.2.4-.2 1 0 1.5l8.9 18h-29.2z"></path>
    </g>
</svg>