<svg xmlns="http://www.w3.org/2000/svg" viewBox="0 44 200 112" role="img" preserveAspectRatio="xMidYMid meet" style="stroke-width: 0px;">
    <g>
        <path d="M169 61h-23.3V44H34.9v24.3H0v7.1h42V51.1h96.6v84.3H86.4c-2.2-6.2-8-11-15.1-11s-12.9 4.5-15.1 11H42v-9.9h-7.1v17h20.7c1.1 7.7 7.8 13.5 15.7 13.5 8 0 14.7-5.8 15.7-13.5h64.8c1.1 7.7 7.8 13.5 15.7 13.5 8 0 14.7-5.8 15.7-13.5H200V95.8c-.6-21.1-12.5-34.8-31-34.8zm-97.9 88.1c-4.7 0-8.6-3.9-8.6-8.6 0-4.7 3.9-8.6 8.6-8.6 4.7 0 8.6 3.9 8.6 8.6 0 4.8-3.8 8.6-8.6 8.6zm96.1 0c-4.7 0-8.6-3.9-8.6-8.6 0-4.7 3.9-8.6 8.6-8.6 4.7 0 8.6 3.9 8.6 8.6.1 4.8-3.8 8.6-8.6 8.6zm25-13.5h-9.9c-2.2-6.2-8-11-15.1-11-6.9 0-12.9 4.5-15.1 11h-6.7V68.1h23.3c14.4 0 23.3 10.7 23.3 27.9v39.6h.2zM35.8 96.9H5.4v-7.1h29.3v-7.3h7.1v14.4h-6zm0 21.5H10.6v-7.1h24.1V104h7.1v14.4h-6z"></path>
    </g>
</svg>