<svg xmlns="http://www.w3.org/2000/svg" viewBox="-0.07189369201660156 -0.09999865293502808 200.0474090576172 200.07498168945312" role="img" preserveAspectRatio="xMidYMid meet" style="stroke-width: 0px;">
    <g>
        <path d="M197.3 164.9l-70.6-71.6L164.5 55c8.7 1.7 17.9-.4 24.7-7.2 7-7.1 9.7-17.4 7.1-27-.4-1.5-1.9-2.4-3.4-2-.5.1-.9.4-1.2.7l-14 14.2-10.2-3.5-3.5-10.4 14-14.2c1.1-1.1 1.1-2.9 0-4-.3-.3-.8-.6-1.2-.7-2.4-.6-4.8-1-7.2-1-2.4 0-4.8.3-7.1 1-4.6 1.2-8.9 3.7-12.4 7.2-6.7 6.8-8.7 16.2-7.1 25l-42.5 43.1c-1.7-1.4-3.7-2.1-5.8-2.1-2.4 0-4.8.9-6.6 2.8l-2.7 2.7-52.5-53.1 1.5-1.6c.6-.6.9-1.5.8-2.4L34 14.3c-.1-.8-.5-1.4-1.1-1.9L16.6.6c-.5-.3-1-.5-1.5-.5-.8 0-1.5.3-2 .8l-9.3 9.4c-1 1-1.1 2.5-.3 3.6l11.6 16.5c.4.6 1.1 1 1.9 1.2l8.1 1.2c.9.1 1.7-.2 2.4-.8l1.5-1.6 52.5 53.2-2.7 2.7c-3.4 3.4-3.6 8.9-.7 12.6l-45.4 46c-8.7-1.7-17.9.4-24.7 7.2-7 7.1-9.7 17.4-7.1 27 .4 1.5 1.9 2.4 3.4 2 .5-.1.9-.4 1.2-.7l14-14.2 10.2 3.5 3.4 10.4-14 14.2c-1.1 1.1-1.1 2.9 0 4 .3.3.8.6 1.2.7 9.5 2.6 19.7-.2 26.7-7.2 6.7-6.8 8.7-16.2 7.1-25l40.6-41.2 70.6 71.6c3.6 3.7 9.6 3.7 13.2 0l18.6-18.9c3.8-3.7 3.8-9.8.2-13.4zM27 24.5L24.5 27l-5.6-.8-9.6-13.6 6-6.1 13.4 9.7.8 5.7-2.5 2.6zm55.7 65.9L92 81c.8-.8 1.7-1.1 2.7-1.1.6 0 1.2.2 1.8.5L82.1 95c-.8-1.5-.7-3.3.6-4.6zm-33.1 73.2c-.7.7-1 1.7-.7 2.7 1.9 7.5.1 15.7-5.6 21.6-4.1 4.2-9.7 5.7-15.4 5.8L38.4 183c.7-.8 1-1.9.7-2.9l-4.4-13.4c-.3-.8-.9-1.5-1.8-1.8l-13.2-4.5c-1-.3-2.1-.1-2.8.7L6.3 171.8c0-5.8 1.6-11.5 5.7-15.7 5.8-5.9 13.9-7.7 21.3-5.7 1 .3 2 0 2.7-.7L147.6 36.4c.7-.7 1-1.7.7-2.7-1.9-7.5-.1-15.7 5.6-21.6 2.8-2.8 6.2-4.8 9.9-5.8.9-.2 1.8-.2 2.7-.2.9.1 1.9.2 2.8.2L158.7 17c-.7.8-1 1.9-.7 2.9l4.4 13.4c.3.8.9 1.5 1.8 1.8l13.2 4.5c1 .3 2.1.1 2.8-.7l10.5-10.7c-.1 5.8-1.6 11.5-5.7 15.7-5.8 5.8-13.9 7.7-21.3 5.7-1-.3-2 0-2.7.7L49.6 163.6zm143.8 10.7l-18.6 18.9c-1.5 1.6-3.9 1.6-5.4 0l-70.6-71.6 5.4-5.5 70.6 71.6 3.9-4-70.6-71.6 5.4-5.5 70.6 71.6 3.9-4-70.6-71.6 5.4-5.5 70.6 71.6c1.5 1.7 1.5 4.1 0 5.6z"></path>
    </g>
</svg>