<?xml version="1.0" encoding="iso-8859-1"?>
<!-- Generator: Adobe Illustrator 16.0.0, SVG Export Plug-In . SVG Version: 6.00 Build 0)  -->
<!DOCTYPE svg PUBLIC "-//W3C//DTD SVG 1.0//EN" "http://www.w3.org/TR/2001/REC-SVG-20010904/DTD/svg10.dtd">
<svg version="1.0" xmlns="http://www.w3.org/2000/svg" xmlns:xlink="http://www.w3.org/1999/xlink" x="0px" y="0px" width="160px"
	 height="60px" viewBox="0 0 160 60" enable-background="new 0 0 160 60" xml:space="preserve">
<g id="Layer_2" display="none">
	<rect y="0.222" display="inline" fill="#ED1C24" width="160" height="59.778"/>
</g>
<g id="Layer_1">
	<rect x="0.187" y="4.006" fill="#030303" width="160" height="41.995"/>
	<rect x="0.187" y="48.811" fill="#030303" width="160" height="11.887"/>
	<g display="none">
		<rect x="1" y="5.006" display="inline" fill="#ED1C24" width="158" height="39.995"/>
		<path display="inline" fill="#010101" d="M158,6.006v37.995H2V6.006H158 M160,4.006H0v41.995h160V4.006L160,4.006z"/>
	</g>
	<g>
		<rect x="0.764" y="4.777" fill="#FFFFFF" width="39.528" height="40.454"/>
	</g>
	<path fill="#ED1C24" d="M19.61,47.229l4.066-2.768c0,0,2.383,1.082,5.848,0.697s5.57-0.826,7.049-3.521
		c1.926-3.504,1.396-8.172,1.396-8.172s-1.963,2.916-3.2,4.332c-1.905,2.176-4.139,3.029-4.139,3.029s1.901-2.621,2.405-4.307
		c0.852-2.834,0.698-9.504,0.698-9.504s-0.827,0.957-1.179,1.203c-0.238,0.168-1.228,0.699-1.228,0.699s0.198-3.19,0.112-6.37
		c-0.065-2.462-0.473-4.906-0.192-5.935c0.506-1.859,1.508-3.754,1.508-3.754s-4.21,1.729-4.62,3.111
		c-0.818,2.763-1.539,6.93-1.539,6.93s-0.007-3.991-0.777-5.98c-0.77-1.989-2.312-2.136-2.238-5.697
		c0.128-6.288,2.058-11.002,2.058-11.002s-4.785,4.589-6.261,7.026c-1.476,2.438-2.182,4.235-2.182,4.235s-0.668-0.759-0.708-2.52
		c-0.03-1.341,0.21-2.616,0.21-2.616s-3.023,3.553-3.151,6.184s-0.048,7.82-0.048,7.82s-1.428-1.965-1.685-4.02
		c-0.257-2.053-1.732-2.622-1.732-2.622s-0.585,2.439-1.204,4.813c-1.41,5.421,0.891,10.945,1.781,14.559
		c0.271,1.096,0.473,3.68,0.473,3.68s-2.211-2.926-2.782-4.5c-0.514-1.412-1.87-3.852-2.768-4.449
		c-1.443-0.964-2.599-0.627-2.599-0.627s2.238,3.57,2.43,4.982c0.361,2.643,1.299,5.426,2.263,6.52
		c2.142,2.43,1.431,3.309,0.858,3.852c-0.726,0.686-1.965,1.492-1.965,1.492l13.738,0.961L19.61,47.229z"/>
	<path fill="#FFFFFF" stroke="#010101" stroke-width="0.4" stroke-miterlimit="10" d="M13.667,24.345v13.188
		c0,0,0.337,1.973,1.588,2.982c1.252,1.012,2.479,1.734,5.463,1.734c2.983,0,4.117-0.424,5.561-1.676
		c1.443-1.25,1.441-2.801,1.441-2.801l0.047-10.877c0,0-0.838-0.277-1.635,0.373c-0.338,0.275-0.949,0.746-0.975,1.41
		c-0.074,1.891-0.074,4.494-0.074,4.494l-0.299-0.02L24.735,20.11c0,0-0.096-0.674-1.287-0.662
		c-0.986,0.011-1.119,0.566-1.119,0.566v8.664h-0.361l0.025-9.449c0,0-0.41-0.72-1.443-0.72c-0.903,0-1.172,0.654-1.172,0.654
		l-0.065,10.19l-0.327,0.01l0.056-9.639c0,0-0.251-0.548-1.333-0.56c-1.083-0.012-1.346,0.704-1.346,0.704l-0.043,10.633
		l-0.379-0.008l0.043-6.168c0,0-0.223-0.499-1.209-0.487C13.69,23.854,13.667,24.345,13.667,24.345z"/>
	<g>
		<path fill="#FFFFFF" d="M2.763,56.066L3.522,56c0.036,0.305,0.12,0.555,0.251,0.748c0.131,0.195,0.335,0.354,0.612,0.475
			c0.276,0.119,0.588,0.18,0.934,0.18c0.307,0,0.578-0.045,0.813-0.137s0.41-0.217,0.525-0.375c0.115-0.16,0.172-0.334,0.172-0.521
			c0-0.191-0.055-0.357-0.166-0.5s-0.293-0.262-0.548-0.359c-0.163-0.063-0.524-0.162-1.083-0.297
			c-0.559-0.135-0.951-0.26-1.175-0.379c-0.291-0.152-0.507-0.342-0.649-0.566c-0.143-0.227-0.214-0.479-0.214-0.758
			c0-0.307,0.087-0.594,0.262-0.861c0.174-0.268,0.429-0.471,0.764-0.607c0.334-0.139,0.707-0.209,1.116-0.209
			c0.451,0,0.849,0.074,1.193,0.219c0.344,0.145,0.609,0.359,0.795,0.641c0.185,0.283,0.285,0.602,0.299,0.959l-0.772,0.059
			C6.61,53.324,6.47,53.033,6.23,52.838c-0.239-0.197-0.593-0.295-1.061-0.295c-0.487,0-0.842,0.088-1.064,0.268
			c-0.223,0.178-0.334,0.393-0.334,0.645c0,0.219,0.079,0.398,0.236,0.541c0.155,0.141,0.56,0.285,1.214,0.434
			c0.654,0.146,1.104,0.277,1.347,0.387c0.354,0.164,0.616,0.371,0.785,0.621s0.253,0.539,0.253,0.865
			c0,0.324-0.093,0.629-0.278,0.916c-0.186,0.285-0.452,0.508-0.799,0.668c-0.347,0.158-0.738,0.238-1.173,0.238
			c-0.55,0-1.012-0.08-1.384-0.24c-0.372-0.162-0.664-0.402-0.876-0.725C2.885,56.838,2.774,56.473,2.763,56.066z"/>
		<path fill="#FFFFFF" d="M9.658,58.021v-6.084h4.399v0.717h-3.594v1.863h3.366v0.715h-3.366v2.07h3.735v0.719H9.658z"/>
		<path fill="#FFFFFF" d="M19.093,55.635V54.92l2.577-0.004v2.258c-0.396,0.316-0.804,0.553-1.224,0.713
			c-0.42,0.158-0.852,0.238-1.295,0.238c-0.598,0-1.141-0.129-1.629-0.385s-0.857-0.625-1.106-1.109s-0.374-1.025-0.374-1.623
			c0-0.592,0.124-1.145,0.372-1.658s0.604-0.895,1.069-1.143c0.465-0.25,1-0.375,1.606-0.375c0.439,0,0.837,0.072,1.193,0.215
			s0.634,0.34,0.836,0.596c0.202,0.254,0.355,0.586,0.461,0.996l-0.727,0.199c-0.091-0.311-0.205-0.555-0.34-0.73
			c-0.136-0.178-0.329-0.32-0.581-0.426c-0.252-0.107-0.531-0.16-0.838-0.16c-0.368,0-0.686,0.057-0.955,0.168
			c-0.269,0.113-0.485,0.26-0.649,0.443c-0.165,0.182-0.292,0.383-0.384,0.602c-0.155,0.375-0.232,0.783-0.232,1.225
			c0,0.541,0.094,0.996,0.28,1.361c0.187,0.365,0.459,0.635,0.815,0.813c0.357,0.178,0.736,0.266,1.138,0.266
			c0.349,0,0.688-0.066,1.021-0.201s0.584-0.277,0.756-0.43v-1.133H19.093z"/>
		<path fill="#FFFFFF" d="M27.785,51.938h0.805v3.514c0,0.611-0.069,1.098-0.208,1.457s-0.388,0.652-0.749,0.879
			c-0.361,0.225-0.835,0.338-1.422,0.338c-0.57,0-1.036-0.098-1.398-0.295s-0.621-0.48-0.776-0.854
			c-0.155-0.371-0.232-0.881-0.232-1.525v-3.514h0.806v3.51c0,0.529,0.049,0.918,0.147,1.168c0.098,0.252,0.267,0.443,0.506,0.58
			c0.239,0.135,0.532,0.203,0.878,0.203c0.592,0,1.014-0.135,1.266-0.402c0.252-0.27,0.378-0.785,0.378-1.549V51.938z"/>
		<path fill="#FFFFFF" d="M30.878,58.021v-6.084h2.698c0.542,0,0.954,0.053,1.236,0.162s0.508,0.303,0.677,0.58
			s0.253,0.582,0.253,0.918c0,0.432-0.14,0.795-0.419,1.09c-0.279,0.297-0.711,0.484-1.295,0.564
			c0.213,0.104,0.375,0.205,0.485,0.305c0.235,0.215,0.458,0.484,0.668,0.809l1.058,1.656h-1.013l-0.805-1.266
			c-0.235-0.365-0.429-0.645-0.581-0.84c-0.152-0.193-0.289-0.328-0.409-0.406c-0.12-0.078-0.243-0.131-0.367-0.162
			c-0.091-0.02-0.241-0.029-0.448-0.029h-0.934v2.703H30.878z M31.684,54.621h1.73c0.368,0,0.656-0.037,0.863-0.113
			s0.365-0.197,0.473-0.365s0.162-0.35,0.162-0.545c0-0.289-0.104-0.525-0.313-0.711s-0.539-0.277-0.99-0.277h-1.926V54.621z"/>
		<path fill="#FFFFFF" d="M38.076,58.021v-6.084h0.805v6.084H38.076z"/>
		<path fill="#FFFFFF" d="M41.235,58.021v-6.084h2.096c0.473,0,0.834,0.027,1.083,0.086c0.349,0.08,0.646,0.227,0.893,0.436
			c0.321,0.271,0.561,0.619,0.72,1.041s0.239,0.902,0.239,1.445c0,0.463-0.054,0.871-0.162,1.229
			c-0.108,0.357-0.247,0.652-0.415,0.887c-0.169,0.234-0.354,0.418-0.554,0.551c-0.201,0.135-0.443,0.236-0.727,0.307
			c-0.284,0.068-0.609,0.104-0.977,0.104H41.235z M42.041,57.303h1.299c0.401,0,0.716-0.037,0.944-0.111
			c0.229-0.074,0.41-0.18,0.546-0.316c0.191-0.189,0.34-0.447,0.446-0.77s0.16-0.713,0.16-1.172c0-0.637-0.104-1.125-0.313-1.467
			s-0.462-0.572-0.761-0.688c-0.216-0.084-0.563-0.125-1.042-0.125h-1.278V57.303z"/>
		<path fill="#FFFFFF" d="M47.641,58.021l2.337-6.084h0.867l2.49,6.084h-0.917l-0.71-1.844h-2.544l-0.668,1.844H47.641z
			 M49.396,55.523h2.063l-0.635-1.686c-0.194-0.512-0.337-0.934-0.432-1.262c-0.078,0.391-0.187,0.777-0.328,1.162L49.396,55.523z"
			/>
		<path fill="#FFFFFF" d="M54.914,58.021v-6.084h2.096c0.473,0,0.834,0.027,1.083,0.086c0.349,0.08,0.646,0.227,0.893,0.436
			c0.321,0.271,0.561,0.619,0.72,1.041s0.239,0.902,0.239,1.445c0,0.463-0.054,0.871-0.162,1.229
			c-0.108,0.357-0.247,0.652-0.415,0.887c-0.169,0.234-0.354,0.418-0.554,0.551c-0.201,0.135-0.443,0.236-0.727,0.307
			c-0.284,0.068-0.609,0.104-0.977,0.104H54.914z M55.719,57.303h1.299c0.401,0,0.716-0.037,0.944-0.111
			c0.229-0.074,0.41-0.18,0.546-0.316c0.191-0.189,0.34-0.447,0.446-0.77s0.16-0.713,0.16-1.172c0-0.637-0.104-1.125-0.313-1.467
			s-0.462-0.572-0.761-0.688c-0.216-0.084-0.563-0.125-1.042-0.125h-1.278V57.303z"/>
		<path fill="#FFFFFF" d="M69.625,55.889l0.805,0.203c-0.169,0.66-0.473,1.164-0.911,1.512s-0.975,0.521-1.608,0.521
			c-0.656,0-1.189-0.133-1.6-0.4c-0.411-0.268-0.724-0.654-0.938-1.16s-0.322-1.051-0.322-1.631c0-0.635,0.121-1.188,0.363-1.658
			c0.242-0.473,0.586-0.83,1.033-1.076c0.447-0.244,0.939-0.367,1.476-0.367c0.609,0,1.121,0.156,1.536,0.465
			c0.415,0.311,0.704,0.746,0.867,1.309l-0.792,0.186c-0.141-0.441-0.346-0.764-0.614-0.967c-0.269-0.201-0.606-0.303-1.013-0.303
			c-0.468,0-0.858,0.113-1.172,0.336c-0.314,0.225-0.535,0.525-0.662,0.902c-0.127,0.379-0.191,0.768-0.191,1.17
			c0,0.518,0.075,0.969,0.226,1.354c0.151,0.387,0.385,0.676,0.704,0.867c0.318,0.189,0.663,0.285,1.034,0.285
			c0.451,0,0.833-0.129,1.146-0.391C69.302,56.785,69.514,56.4,69.625,55.889z"/>
		<path fill="#FFFFFF" d="M72.112,55.059c0-1.012,0.271-1.801,0.813-2.373c0.542-0.57,1.242-0.857,2.1-0.857
			c0.562,0,1.068,0.135,1.52,0.402c0.451,0.27,0.794,0.643,1.031,1.123c0.236,0.48,0.354,1.025,0.354,1.633
			c0,0.617-0.124,1.17-0.373,1.656c-0.249,0.488-0.602,0.855-1.059,1.107c-0.457,0.25-0.949,0.375-1.478,0.375
			c-0.573,0-1.084-0.139-1.536-0.416c-0.451-0.275-0.792-0.654-1.025-1.133S72.112,55.592,72.112,55.059z M72.942,55.07
			c0,0.732,0.197,1.311,0.591,1.732c0.394,0.422,0.889,0.633,1.484,0.633c0.605,0,1.104-0.213,1.496-0.639s0.587-1.031,0.587-1.814
			c0-0.494-0.083-0.928-0.251-1.297s-0.412-0.656-0.734-0.859s-0.684-0.305-1.085-0.305c-0.57,0-1.061,0.195-1.471,0.588
			C73.147,53.5,72.942,54.154,72.942,55.07z"/>
		<path fill="#FFFFFF" d="M79.895,58.021v-6.084h0.826l3.195,4.775v-4.775h0.773v6.084h-0.826l-3.196-4.781v4.781H79.895z"/>
		<path fill="#FFFFFF" d="M88.525,58.021v-5.367H86.52v-0.717h4.823v0.717H89.33v5.367H88.525z"/>
		<path fill="#FFFFFF" d="M93.116,58.021v-6.084h2.698c0.542,0,0.954,0.053,1.236,0.162s0.508,0.303,0.677,0.58
			s0.253,0.582,0.253,0.918c0,0.432-0.14,0.795-0.419,1.09c-0.279,0.297-0.711,0.484-1.295,0.564
			c0.213,0.104,0.375,0.205,0.485,0.305c0.235,0.215,0.458,0.484,0.668,0.809l1.059,1.656h-1.013l-0.805-1.266
			c-0.235-0.365-0.429-0.645-0.581-0.84c-0.152-0.193-0.289-0.328-0.409-0.406s-0.243-0.131-0.367-0.162
			c-0.091-0.02-0.241-0.029-0.448-0.029h-0.934v2.703H93.116z M93.922,54.621h1.73c0.368,0,0.656-0.037,0.863-0.113
			s0.365-0.197,0.473-0.365c0.108-0.168,0.162-0.35,0.162-0.545c0-0.289-0.104-0.525-0.313-0.711s-0.539-0.277-0.99-0.277h-1.926
			V54.621z"/>
		<path fill="#FFFFFF" d="M99.509,58.021l2.337-6.084h0.867l2.49,6.084h-0.917l-0.71-1.844h-2.544l-0.668,1.844H99.509z
			 M101.265,55.523h2.063l-0.635-1.686c-0.194-0.512-0.337-0.934-0.432-1.262c-0.077,0.391-0.187,0.777-0.328,1.162L101.265,55.523z
			"/>
		<path fill="#FFFFFF" d="M109.746,58.021v-6.084h0.805v6.084H109.746z"/>
		<path fill="#FFFFFF" d="M112.897,58.021v-6.084h0.826l3.195,4.775v-4.775h0.772v6.084h-0.826l-3.195-4.781v4.781H112.897z"/>
		<path fill="#FFFFFF" d="M124.32,55.889l0.806,0.203c-0.169,0.66-0.473,1.164-0.911,1.512s-0.975,0.521-1.607,0.521
			c-0.656,0-1.189-0.133-1.601-0.4s-0.724-0.654-0.938-1.16c-0.214-0.506-0.321-1.051-0.321-1.631c0-0.635,0.121-1.188,0.363-1.658
			c0.242-0.473,0.587-0.83,1.033-1.076c0.446-0.244,0.938-0.367,1.476-0.367c0.609,0,1.121,0.156,1.535,0.465
			c0.416,0.311,0.705,0.746,0.867,1.309l-0.792,0.186c-0.142-0.441-0.346-0.764-0.614-0.967c-0.269-0.201-0.605-0.303-1.013-0.303
			c-0.468,0-0.858,0.113-1.173,0.336c-0.313,0.225-0.534,0.525-0.662,0.902c-0.127,0.379-0.19,0.768-0.19,1.17
			c0,0.518,0.075,0.969,0.226,1.354c0.151,0.387,0.386,0.676,0.704,0.867c0.318,0.189,0.663,0.285,1.034,0.285
			c0.45,0,0.832-0.129,1.145-0.391C123.998,56.785,124.21,56.4,124.32,55.889z"/>
		<path fill="#FFFFFF" d="M127.069,58.021v-6.084h4.399v0.717h-3.594v1.863h3.365v0.715h-3.365v2.07h3.734v0.719H127.069z"/>
		<path fill="#FFFFFF" d="M133.648,58.021v-6.084h0.826l3.195,4.775v-4.775h0.773v6.084h-0.826l-3.196-4.781v4.781H133.648z"/>
		<path fill="#FFFFFF" d="M145.072,55.889l0.805,0.203c-0.169,0.66-0.473,1.164-0.911,1.512s-0.975,0.521-1.608,0.521
			c-0.656,0-1.189-0.133-1.6-0.4c-0.411-0.268-0.724-0.654-0.938-1.16c-0.215-0.506-0.322-1.051-0.322-1.631
			c0-0.635,0.121-1.188,0.363-1.658c0.242-0.473,0.586-0.83,1.033-1.076c0.447-0.244,0.939-0.367,1.476-0.367
			c0.608,0,1.12,0.156,1.536,0.465c0.414,0.311,0.703,0.746,0.867,1.309l-0.793,0.186c-0.141-0.441-0.346-0.764-0.614-0.967
			c-0.269-0.201-0.606-0.303-1.013-0.303c-0.468,0-0.858,0.113-1.172,0.336c-0.314,0.225-0.535,0.525-0.662,0.902
			c-0.128,0.379-0.191,0.768-0.191,1.17c0,0.518,0.075,0.969,0.227,1.354c0.15,0.387,0.385,0.676,0.703,0.867
			c0.318,0.189,0.662,0.285,1.033,0.285c0.451,0,0.833-0.129,1.146-0.391C144.75,56.785,144.961,56.4,145.072,55.889z"/>
		<path fill="#FFFFFF" d="M147.941,58.021v-6.084h0.805v6.084H147.941z"/>
		<path fill="#FFFFFF" d="M150.855,55.059c0-1.012,0.271-1.801,0.814-2.373c0.541-0.57,1.242-0.857,2.1-0.857
			c0.562,0,1.068,0.135,1.52,0.402c0.45,0.27,0.794,0.643,1.031,1.123c0.236,0.48,0.354,1.025,0.354,1.633
			c0,0.617-0.123,1.17-0.373,1.656c-0.248,0.488-0.602,0.855-1.059,1.107c-0.456,0.25-0.949,0.375-1.477,0.375
			c-0.573,0-1.085-0.139-1.536-0.416c-0.451-0.275-0.792-0.654-1.024-1.133S150.855,55.592,150.855,55.059z M151.686,55.07
			c0,0.732,0.197,1.311,0.592,1.732s0.889,0.633,1.484,0.633c0.605,0,1.104-0.213,1.496-0.639c0.391-0.426,0.586-1.031,0.586-1.814
			c0-0.494-0.083-0.928-0.25-1.297c-0.168-0.369-0.412-0.656-0.734-0.859s-0.685-0.305-1.086-0.305c-0.57,0-1.061,0.195-1.471,0.588
			C151.891,53.5,151.686,54.154,151.686,55.07z"/>
	</g>
	<g>
		<rect x="40.292" y="4.796" fill="#ED1C24" width="119.467" height="40.454"/>
	</g>
	<g>
		<path fill="#FFFFFF" d="M59.154,8.206h15.531v4.083h-5.21v12.452h-5.109V12.289h-5.211V8.206z"/>
		<path fill="#FFFFFF" d="M75.565,16.485c0-2.699,0.752-4.801,2.256-6.305s3.598-2.256,6.283-2.256c2.752,0,4.872,0.739,6.361,2.216
			c1.488,1.478,2.232,3.547,2.232,6.209c0,1.933-0.324,3.517-0.975,4.754c-0.65,1.237-1.591,2.2-2.82,2.888
			s-2.762,1.032-4.596,1.032c-1.865,0-3.409-0.297-4.63-0.891c-1.222-0.594-2.212-1.534-2.972-2.82
			C75.945,20.026,75.565,18.417,75.565,16.485z M80.674,16.507c0,1.669,0.31,2.869,0.931,3.598c0.619,0.729,1.464,1.094,2.531,1.094
			c1.098,0,1.947-0.357,2.549-1.072c0.602-0.714,0.902-1.996,0.902-3.846c0-1.557-0.313-2.694-0.941-3.412
			c-0.628-0.718-1.479-1.077-2.555-1.077c-1.03,0-1.857,0.365-2.481,1.094C80.986,13.616,80.674,14.823,80.674,16.507z"/>
		<path fill="#FFFFFF" d="M93.69,8.206h15.53v4.083h-5.21v12.452h-5.109V12.289H93.69V8.206z"/>
		<path fill="#FFFFFF" d="M120.131,22.012h-5.801l-0.806,2.729h-5.217l6.215-16.535h5.573l6.213,16.535h-5.35L120.131,22.012z
			 M119.071,18.436l-1.825-5.944l-1.806,5.944H119.071z"/>
		<path fill="#FFFFFF" d="M127.934,8.206h5.109v12.463h7.974v4.072h-13.083V8.206z"/>
	</g>
	<g>
		<path fill="#FFFFFF" d="M44.75,38.666l1.93-0.209c0.116,0.727,0.352,1.26,0.707,1.602c0.355,0.34,0.834,0.51,1.438,0.51
			c0.639,0,1.12-0.15,1.444-0.455c0.324-0.303,0.486-0.656,0.486-1.063c0-0.262-0.068-0.482-0.205-0.666s-0.374-0.342-0.713-0.477
			c-0.232-0.092-0.762-0.252-1.588-0.482c-1.063-0.295-1.809-0.658-2.238-1.09c-0.603-0.607-0.904-1.346-0.904-2.219
			c0-0.561,0.142-1.086,0.425-1.574c0.284-0.489,0.692-0.861,1.226-1.117s1.178-0.384,1.933-0.384c1.233,0,2.161,0.304,2.784,0.91
			s0.95,1.417,0.981,2.429l-1.983,0.098c-0.085-0.566-0.267-0.975-0.546-1.223c-0.279-0.248-0.698-0.371-1.256-0.371
			c-0.576,0-1.027,0.133-1.354,0.398c-0.21,0.17-0.315,0.398-0.315,0.684c0,0.262,0.098,0.484,0.295,0.67
			c0.25,0.234,0.857,0.48,1.822,0.736s1.679,0.52,2.141,0.793c0.462,0.273,0.824,0.646,1.085,1.121
			c0.261,0.473,0.392,1.059,0.392,1.756c0,0.631-0.156,1.223-0.469,1.773c-0.313,0.553-0.755,0.963-1.327,1.23
			s-1.284,0.402-2.138,0.402c-1.242,0-2.195-0.322-2.861-0.967S44.879,39.9,44.75,38.666z"/>
		<path fill="#FFFFFF" d="M56.342,42.254v-9.158h-2.915V31.23h7.806v1.865h-2.908v9.158H56.342z"/>
		<path fill="#FFFFFF" d="M61.588,36.809c0-1.121,0.15-2.064,0.449-2.826c0.223-0.563,0.528-1.064,0.915-1.512
			c0.386-0.445,0.81-0.777,1.27-0.992c0.612-0.291,1.318-0.437,2.117-0.437c1.447,0,2.605,0.504,3.474,1.511
			c0.869,1.008,1.303,2.41,1.303,4.203c0,1.781-0.431,3.174-1.293,4.178c-0.862,1.006-2.015,1.508-3.458,1.508
			c-1.46,0-2.622-0.5-3.484-1.5C62.019,39.941,61.588,38.564,61.588,36.809z M63.632,36.734c0,1.248,0.257,2.193,0.771,2.838
			s1.166,0.967,1.957,0.967c0.791,0,1.439-0.32,1.946-0.959c0.507-0.639,0.76-1.598,0.76-2.875c0-1.264-0.247-2.207-0.74-2.828
			s-1.149-0.932-1.966-0.932c-0.818,0-1.477,0.314-1.977,0.943C63.882,34.518,63.632,35.467,63.632,36.734z"/>
		<path fill="#FFFFFF" d="M72.39,42.254V31.23h3.183c1.206,0,1.992,0.055,2.358,0.165c0.563,0.165,1.034,0.525,1.414,1.079
			c0.38,0.555,0.57,1.27,0.57,2.146c0,0.678-0.11,1.246-0.329,1.707s-0.497,0.824-0.834,1.086c-0.337,0.264-0.68,0.438-1.028,0.523
			c-0.474,0.105-1.159,0.158-2.057,0.158h-1.293v4.158H72.39z M74.373,33.096v3.127h1.085c0.782,0,1.305-0.057,1.568-0.172
			c0.264-0.115,0.47-0.297,0.62-0.543c0.149-0.244,0.224-0.531,0.224-0.855c0-0.402-0.105-0.732-0.315-0.994
			c-0.21-0.26-0.476-0.424-0.797-0.488c-0.237-0.051-0.713-0.074-1.427-0.074H74.373z"/>
		<path fill="#FFFFFF" d="M84.57,42.254V31.23h6.734v1.865h-4.75v2.607h4.1v1.865h-4.1v4.686H84.57z"/>
		<path fill="#FFFFFF" d="M92.605,42.254V31.23h1.982v11.023H92.605z"/>
		<path fill="#FFFFFF" d="M96.21,42.254V31.23h4.175c1.049,0,1.813,0.099,2.287,0.297c0.477,0.197,0.857,0.55,1.143,1.057
			c0.286,0.506,0.43,1.086,0.43,1.736c0,0.828-0.217,1.51-0.65,2.049s-1.081,0.879-1.943,1.02c0.43,0.281,0.783,0.588,1.063,0.924
			s0.655,0.934,1.129,1.791l1.199,2.15h-2.371l-1.435-2.398c-0.509-0.857-0.857-1.398-1.046-1.621
			c-0.188-0.223-0.386-0.377-0.596-0.459s-0.543-0.123-0.998-0.123h-0.402v4.602H96.21z M98.193,35.893h1.467
			c0.952,0,1.546-0.045,1.783-0.137c0.236-0.09,0.422-0.244,0.556-0.465s0.201-0.496,0.201-0.828c0-0.371-0.089-0.67-0.265-0.898
			c-0.177-0.229-0.426-0.371-0.747-0.432c-0.161-0.025-0.644-0.037-1.447-0.037h-1.548V35.893z"/>
		<path fill="#FFFFFF" d="M105.839,42.254V31.23h7.283v1.865h-5.3v2.443h4.932v1.857h-4.932v3h5.487v1.857H105.839z"/>
		<path fill="#FFFFFF" d="M117.752,38.666l1.93-0.209c0.116,0.727,0.352,1.26,0.707,1.602c0.355,0.34,0.834,0.51,1.438,0.51
			c0.639,0,1.119-0.15,1.443-0.455c0.324-0.303,0.486-0.656,0.486-1.063c0-0.262-0.068-0.482-0.205-0.666
			c-0.136-0.184-0.373-0.342-0.713-0.477c-0.232-0.092-0.762-0.252-1.588-0.482c-1.063-0.295-1.81-0.658-2.238-1.09
			c-0.604-0.607-0.904-1.346-0.904-2.219c0-0.561,0.142-1.086,0.426-1.574c0.283-0.489,0.691-0.861,1.226-1.117
			s1.179-0.384,1.933-0.384c1.233,0,2.162,0.304,2.785,0.91s0.949,1.417,0.98,2.429l-1.982,0.098
			c-0.086-0.566-0.268-0.975-0.547-1.223s-0.697-0.371-1.256-0.371c-0.576,0-1.027,0.133-1.354,0.398
			c-0.21,0.17-0.314,0.398-0.314,0.684c0,0.262,0.098,0.484,0.295,0.67c0.25,0.234,0.857,0.48,1.822,0.736s1.678,0.52,2.141,0.793
			c0.462,0.273,0.824,0.646,1.086,1.121c0.261,0.473,0.391,1.059,0.391,1.756c0,0.631-0.156,1.223-0.469,1.773
			c-0.313,0.553-0.754,0.963-1.326,1.23s-1.284,0.402-2.138,0.402c-1.241,0-2.195-0.322-2.86-0.967
			C118.279,40.838,117.882,39.9,117.752,38.666z"/>
		<path fill="#FFFFFF" d="M127.119,42.254v-2.113h1.883v2.113H127.119z"/>
		<path fill="#FFFFFF" d="M139.528,42.254h-2.157l-0.857-2.504h-3.927l-0.811,2.504h-2.104l3.826-11.023h2.098L139.528,42.254z
			 M135.877,37.893l-1.354-4.092l-1.326,4.092H135.877z"/>
		<path fill="#FFFFFF" d="M140.293,42.254v-2.113h1.883v2.113H140.293z"/>
		<path fill="#FFFFFF" d="M150.129,38.201l1.923,0.684c-0.294,1.203-0.785,2.098-1.471,2.68c-0.686,0.586-1.556,0.877-2.609,0.877
			c-1.305,0-2.376-0.5-3.216-1.5s-1.26-2.367-1.26-4.102c0-1.836,0.422-3.26,1.266-4.275c0.845-1.015,1.955-1.522,3.33-1.522
			c1.201,0,2.178,0.398,2.928,1.196c0.447,0.471,0.782,1.146,1.006,2.029l-1.963,0.527c-0.117-0.572-0.359-1.023-0.728-1.354
			c-0.368-0.332-0.816-0.496-1.343-0.496c-0.729,0-1.319,0.293-1.773,0.879c-0.453,0.586-0.68,1.537-0.68,2.85
			c0,1.395,0.224,2.387,0.67,2.979c0.447,0.592,1.027,0.887,1.742,0.887c0.527,0,0.98-0.188,1.36-0.564
			C149.691,39.6,149.964,39.008,150.129,38.201z"/>
		<path fill="#FFFFFF" d="M153.467,42.254v-2.113h1.883v2.113H153.467z"/>
	</g>
</g>
</svg>
