<svg id="Layer_2" data-name="Layer 2" xmlns="http://www.w3.org/2000/svg" viewBox="0 0 1216.90002 604.40002"><title>hex-map-new</title><path d="M331.6,604.4l-3.5-6.1,3.5-6.2h7.1l3.6,6.2-3.6,6.1Zm0-15.8-3.5-6.1,3.5-6.2h7.1l3.6,6.2-3.6,6.1Zm0-15.7-3.5-6.2,3.5-6.2h7.1l3.6,6.2-3.6,6.2Zm0-15.8-3.5-6.2,3.5-6.1h7.1l3.6,6.1-3.6,6.2Zm0-15.8-3.5-6.2,3.5-6.1h7.1l3.6,6.1-3.6,6.2Zm0-15.8-3.5-6.2,3.5-6.1h7.1l3.6,6.1-3.6,6.2Zm0-15.8-3.5-6.2,3.5-6.1h7.1l3.6,6.1-3.6,6.2Zm0-15.8-3.5-6.2,3.5-6.1h7.1l3.6,6.1-3.6,6.2Zm0-15.8-3.5-6.1,3.5-6.2h7.1l3.6,6.2-3.6,6.1Zm0-15.8-3.5-6.1,3.5-6.2h7.1l3.6,6.2-3.6,6.1Zm0-15.8-3.5-6.1,3.5-6.2h7.1l3.6,6.2-3.6,6.1Zm0-15.8-3.5-6.1,3.5-6.2h7.1l3.6,6.2-3.6,6.1Zm0-15.8-3.5-6.1,3.5-6.2h7.1l3.6,6.2-3.6,6.1Zm0-15.7-3.5-6.2,3.5-6.1h7.1l3.6,6.1-3.6,6.2Zm0-15.8-3.5-6.2,3.5-6.1h7.1l3.6,6.1-3.6,6.2Zm0-47.4-3.5-6.2,3.5-6.1h7.1l3.6,6.1-3.6,6.2Zm0-110.5-3.5-6.2,3.5-6.1h7.1l3.6,6.1-3.6,6.2Zm0-15.8-3.5-6.2,3.5-6.1h7.1l3.6,6.1-3.6,6.2Zm0-15.8-3.5-6.2,3.5-6.1h7.1l3.6,6.1-3.6,6.2Zm0-15.8-3.5-6.2,3.5-6.1h7.1l3.6,6.1-3.6,6.2Zm0-31.6-3.5-6.1,3.5-6.2h7.1l3.6,6.2-3.6,6.1Zm0-15.8-3.5-6.1,3.5-6.2h7.1l3.6,6.2-3.6,6.1Zm0-15.8-3.5-6.1,3.5-6.2h7.1l3.6,6.2-3.6,6.1Zm0-63.1-3.5-6.2,3.5-6.1h7.1l3.6,6.1-3.6,6.2Zm0-31.6L328.1,14l3.5-6.1h7.1l3.6,6.1-3.6,6.2Zm0,347.4-3.5-6.2,3.5-6.1h7.1l3.6,6.1-3.6,6.2Zm-27.3,78.9-3.6-6.1,3.6-6.2h7.1l3.5,6.2-3.5,6.1Zm0-15.8-3.6-6.1,3.6-6.2h7.1l3.5,6.2-3.5,6.1Zm0-15.8-3.6-6.1,3.6-6.2h7.1l3.5,6.2-3.5,6.1Zm0-15.7-3.6-6.2,3.6-6.1h7.1l3.5,6.1-3.5,6.2Zm0-15.8-3.6-6.2,3.6-6.1h7.1l3.5,6.1-3.5,6.2Zm0-63.2-3.6-6.2,3.6-6.1h7.1l3.5,6.1-3.5,6.2Zm0-47.4-3.6-6.1,3.6-6.2h7.1l3.5,6.2-3.5,6.1Zm0-15.8-3.6-6.1,3.6-6.2h7.1l3.5,6.2-3.5,6.1Zm0-15.8-3.6-6.1,3.6-6.2h7.1l3.5,6.2-3.5,6.1Zm0-15.7-3.6-6.2,3.6-6.1h7.1l3.5,6.1-3.5,6.2Zm0-15.8-3.6-6.2,3.6-6.1h7.1l3.5,6.1-3.5,6.2Zm0-15.8-3.6-6.2,3.6-6.1h7.1l3.5,6.1-3.5,6.2Zm0-15.8-3.6-6.2,3.6-6.1h7.1l3.5,6.1-3.5,6.2Zm0-15.8-3.6-6.2,3.6-6.1h7.1l3.5,6.1-3.5,6.2Zm0-47.4-3.6-6.1,3.6-6.2h7.1l3.5,6.2-3.5,6.1Zm0-15.8L300.7,93l3.6-6.2h7.1l3.5,6.2-3.5,6.1Zm0-47.3-3.6-6.2,3.6-6.1h7.1l3.5,6.1-3.5,6.2Zm0-15.8-3.6-6.2,3.6-6.1h7.1l3.5,6.1L311.4,36Zm0-15.8L300.7,14l3.6-6.1h7.1l3.5,6.1-3.5,6.2Zm0,347.4-3.6-6.2,3.6-6.1h7.1l3.5,6.1-3.5,6.2Zm13.6,228.9-3.5-6.1,3.5-6.2H325l3.6,6.2-3.6,6.1Zm0-15.8-3.5-6.1,3.5-6.2H325l3.6,6.2-3.6,6.1Zm0-15.7-3.5-6.2,3.5-6.1H325l3.6,6.1L325,565Zm0-15.8-3.5-6.2,3.5-6.1H325l3.6,6.1-3.6,6.2Zm0-15.8-3.5-6.2,3.5-6.1H325l3.6,6.1-3.6,6.2Zm0-15.8-3.5-6.2,3.5-6.1H325l3.6,6.1-3.6,6.2Zm0-63.2-3.5-6.1,3.5-6.2H325l3.6,6.2-3.6,6.1Zm0-15.8-3.5-6.1,3.5-6.2H325l3.6,6.2-3.6,6.1Zm0-15.8-3.5-6.1,3.5-6.2H325l3.6,6.2-3.6,6.1Zm0-15.7-3.5-6.2,3.5-6.2H325l3.6,6.2-3.6,6.2Zm0-15.8-3.5-6.2,3.5-6.1H325l3.6,6.1-3.6,6.2Zm0-31.6-3.5-6.2,3.5-6.1H325l3.6,6.1-3.6,6.2Zm0-31.6-3.5-6.2,3.5-6.1H325l3.6,6.1-3.6,6.2Zm0-79-3.5-6.1,3.5-6.2H325l3.6,6.2-3.6,6.1Zm0-15.7-3.5-6.2,3.5-6.2H325l3.6,6.2-3.6,6.2Zm0-15.8-3.5-6.2,3.5-6.1H325l3.6,6.1-3.6,6.2Zm0-15.8-3.5-6.2,3.5-6.1H325l3.6,6.1-3.6,6.2Zm0-15.8-3.5-6.2,3.5-6.1H325l3.6,6.1L325,186Zm0-15.8-3.5-6.2,3.5-6.1H325l3.6,6.1-3.6,6.2Zm0-31.6-3.5-6.1,3.5-6.2H325l3.6,6.2-3.6,6.1Zm0-15.8-3.5-6.1,3.5-6.2H325l3.6,6.2-3.6,6.1Zm0-15.8-3.5-6.1,3.5-6.2H325l3.6,6.2L325,107Zm0-78.9-3.5-6.2,3.5-6.1H325l3.6,6.1L325,28.1Zm0-15.8-3.5-6.1L317.9,0H325l3.6,6.2L325,12.3Zm0,363.2-3.5-6.2,3.5-6.1H325l3.6,6.1-3.6,6.2Zm-27.2,47.3-3.6-6.1,3.6-6.2h7.1l3.5,6.2-3.5,6.1Zm0-15.7-3.6-6.2,3.6-6.2h7.1l3.5,6.2-3.5,6.2Zm0-110.6-3.6-6.1,3.6-6.2h7.1l3.5,6.2-3.5,6.1Zm0-15.8-3.6-6.1,3.6-6.2h7.1l3.5,6.2-3.5,6.1Zm0-15.8-3.6-6.1,3.6-6.2h7.1l3.5,6.2-3.5,6.1Zm0-15.8-3.6-6.1,3.6-6.2h7.1l3.5,6.2-3.5,6.1Zm0-15.7-3.6-6.2,3.6-6.2h7.1l3.5,6.2-3.5,6.2Zm0-15.8-3.6-6.2,3.6-6.1h7.1l3.5,6.1-3.5,6.2Zm0-15.8-3.6-6.2,3.6-6.1h7.1l3.5,6.1-3.5,6.2Zm0-94.8-3.6-6.1,3.6-6.2h7.1l3.5,6.2-3.5,6.1Zm0-15.8-3.6-6.1,3.6-6.2h7.1l3.5,6.2-3.5,6.1Zm0-31.5-3.6-6.2,3.6-6.1h7.1l3.5,6.1-3.5,6.2Zm0-15.8-3.6-6.2,3.6-6.1h7.1l3.5,6.1-3.5,6.2Zm0-15.8-3.6-6.2,3.6-6.1h7.1l3.5,6.1-3.5,6.2ZM276.9,351.8l-3.5-6.2,3.5-6.1H284l3.6,6.1-3.6,6.2Zm0-63.2-3.5-6.1,3.5-6.2H284l3.6,6.2-3.6,6.1Zm0-15.8-3.5-6.1,3.5-6.2H284l3.6,6.2-3.6,6.1Zm0-15.8-3.5-6.1,3.5-6.2H284l3.6,6.2L284,257Zm0-15.8-3.5-6.1,3.5-6.2H284l3.6,6.2-3.6,6.1Zm0-31.5-3.5-6.2,3.5-6.1H284l3.6,6.1-3.6,6.2Zm0-15.8-3.5-6.2,3.5-6.1H284l3.6,6.1-3.6,6.2Zm0-47.4-3.5-6.1,3.5-6.2H284l3.6,6.2-3.6,6.1Zm0-15.8-3.5-6.1,3.5-6.2H284l3.6,6.2-3.6,6.1Zm0-15.8-3.5-6.1,3.5-6.2H284l3.6,6.2-3.6,6.1Zm0-15.8L273.4,93l3.5-6.2H284l3.6,6.2L284,99.1Zm0-15.8-3.5-6.1,3.5-6.2H284l3.6,6.2L284,83.3Zm0-15.7-3.5-6.2,3.5-6.2H284l3.6,6.2L284,67.6Zm0-15.8-3.5-6.2,3.5-6.1H284l3.6,6.1L284,51.8Zm0-15.8-3.5-6.2,3.5-6.1H284l3.6,6.1L284,36Zm0-15.8L273.4,14l3.5-6.1H284l3.6,6.1L284,20.2Zm0,347.4-3.5-6.2,3.5-6.1H284l3.6,6.1-3.6,6.2Zm-27.3,31.6L246,393l3.6-6.1h7.1l3.5,6.1-3.5,6.2Zm0-63.2-3.6-6.2,3.6-6.1h7.1l3.5,6.1-3.5,6.2Zm0-47.4-3.6-6.1,3.6-6.2h7.1l3.5,6.2-3.5,6.1Zm0-15.8-3.6-6.1,3.6-6.2h7.1l3.5,6.2-3.5,6.1Zm0-15.8-3.6-6.1,3.6-6.2h7.1l3.5,6.2-3.5,6.1Zm0-15.8-3.6-6.1,3.6-6.2h7.1l3.5,6.2-3.5,6.1Zm0-15.7-3.6-6.2,3.6-6.1h7.1l3.5,6.1-3.5,6.2Zm0-15.8-3.6-6.2,3.6-6.1h7.1l3.5,6.1-3.5,6.2Zm0-15.8-3.6-6.2,3.6-6.1h7.1l3.5,6.1-3.5,6.2Zm0-15.8-3.6-6.2,3.6-6.1h7.1l3.5,6.1-3.5,6.2Zm0-31.6-3.6-6.1,3.6-6.2h7.1l3.5,6.2-3.5,6.1Zm0-15.8-3.6-6.1,3.6-6.2h7.1l3.5,6.2-3.5,6.1Zm0-15.8-3.6-6.1,3.6-6.2h7.1l3.5,6.2-3.5,6.1Zm0-31.6L246,77.2l3.6-6.2h7.1l3.5,6.2-3.5,6.1Zm0-15.7L246,61.4l3.6-6.2h7.1l3.5,6.2-3.5,6.2Zm0-15.8L246,45.6l3.6-6.1h7.1l3.5,6.1-3.5,6.2Zm0-15.8L246,29.8l3.6-6.1h7.1l3.5,6.1L256.7,36ZM222.2,336l-3.5-6.2,3.5-6.1h7.1l3.6,6.1-3.6,6.2Zm0-15.8-3.5-6.2,3.5-6.1h7.1l3.6,6.1-3.6,6.2Zm0-15.8-3.5-6.1,3.5-6.2h7.1l3.6,6.2-3.6,6.1Zm0-15.8-3.5-6.1,3.5-6.2h7.1l3.6,6.2-3.6,6.1Zm0-15.8-3.5-6.1,3.5-6.2h7.1l3.6,6.2-3.6,6.1Zm0-15.8-3.5-6.1,3.5-6.2h7.1l3.6,6.2-3.6,6.1Zm0-15.8-3.5-6.1,3.5-6.2h7.1l3.6,6.2-3.6,6.1Zm0-15.7-3.5-6.2,3.5-6.1h7.1l3.6,6.1-3.6,6.2Zm0-15.8-3.5-6.2,3.5-6.1h7.1l3.6,6.1-3.6,6.2Zm0-15.8-3.5-6.2,3.5-6.1h7.1l3.6,6.1-3.6,6.2Zm0-15.8-3.5-6.2,3.5-6.1h7.1l3.6,6.1-3.6,6.2Zm0-15.8-3.5-6.2,3.5-6.1h7.1l3.6,6.1-3.6,6.2Zm0-15.8-3.5-6.1,3.5-6.2h7.1l3.6,6.2-3.6,6.1Zm0-15.8-3.5-6.1,3.5-6.2h7.1l3.6,6.2-3.6,6.1Zm0-15.8-3.5-6.1,3.5-6.2h7.1l3.6,6.2-3.6,6.1Zm0-31.6-3.5-6.1,3.5-6.2h7.1l3.6,6.2-3.6,6.1Zm0-15.7-3.5-6.2,3.5-6.2h7.1l3.6,6.2-3.6,6.2Zm0-15.8-3.5-6.2,3.5-6.1h7.1l3.6,6.1-3.6,6.2Zm41.1,292.1-3.5-6.2,3.5-6.1h7.1l3.6,6.1-3.6,6.2Zm0-15.8-3.5-6.2,3.5-6.1h7.1l3.6,6.1-3.6,6.2Zm0-47.4-3.5-6.1,3.5-6.2h7.1l3.6,6.2-3.6,6.1Zm0-15.8-3.5-6.1,3.5-6.2h7.1l3.6,6.2-3.6,6.1Zm0-15.8-3.5-6.1,3.5-6.2h7.1L274,243l-3.6,6.1Zm0-15.7-3.5-6.2,3.5-6.2h7.1l3.6,6.2-3.6,6.2Zm0-31.6-3.5-6.2,3.5-6.1h7.1l3.6,6.1-3.6,6.2Zm0-15.8-3.5-6.2,3.5-6.1h7.1l3.6,6.1-3.6,6.2Zm0-47.4-3.5-6.1,3.5-6.2h7.1l3.6,6.2-3.6,6.1Zm0-15.8-3.5-6.1,3.5-6.2h7.1l3.6,6.2-3.6,6.1Zm0-31.6-3.5-6.1,3.5-6.2h7.1l3.6,6.2-3.6,6.1Zm0-31.5-3.5-6.2,3.5-6.1h7.1l3.6,6.1-3.6,6.2Zm0-15.8-3.5-6.2,3.5-6.1h7.1l3.6,6.1-3.6,6.2Zm0-15.8-3.5-6.2,3.5-6.1h7.1l3.6,6.1-3.6,6.2ZM236,343.9l-3.6-6.2,3.6-6.1h7.1l3.5,6.1-3.5,6.2Zm0-15.8-3.6-6.2,3.6-6.1h7.1l3.5,6.1-3.5,6.2Zm0-31.6-3.6-6.1,3.6-6.2h7.1l3.5,6.2-3.5,6.1Zm0-15.8-3.6-6.1,3.6-6.2h7.1l3.5,6.2-3.5,6.1Zm0-15.8-3.6-6.1,3.6-6.2h7.1l3.5,6.2-3.5,6.1Zm0-15.8-3.6-6.1,3.6-6.2h7.1l3.5,6.2-3.5,6.1Zm0-15.7-3.6-6.2L236,221h7.1l3.5,6.2-3.5,6.2Zm0-15.8-3.6-6.2,3.6-6.1h7.1l3.5,6.1-3.5,6.2Zm0-15.8-3.6-6.2,3.6-6.1h7.1l3.5,6.1-3.5,6.2Zm0-15.8-3.6-6.2,3.6-6.1h7.1l3.5,6.1-3.5,6.2Zm0-15.8-3.6-6.2,3.6-6.1h7.1l3.5,6.1-3.5,6.2Zm0-15.8-3.6-6.2,3.6-6.1h7.1l3.5,6.1-3.5,6.2Zm0-15.8-3.6-6.1,3.6-6.2h7.1l3.5,6.2-3.5,6.1Zm0-15.8-3.6-6.1,3.6-6.2h7.1l3.5,6.2-3.5,6.1Zm0-15.8-3.6-6.1,3.6-6.2h7.1l3.5,6.2-3.5,6.1ZM194.9,304.4l-3.5-6.1,3.5-6.2H202l3.6,6.2-3.6,6.1Zm0-15.8-3.5-6.1,3.5-6.2H202l3.6,6.2-3.6,6.1Zm0-15.8-3.5-6.1,3.5-6.2H202l3.6,6.2-3.6,6.1Zm0-15.8-3.5-6.1,3.5-6.2H202l3.6,6.2L202,257Zm0-15.8-3.5-6.1,3.5-6.2H202l3.6,6.2-3.6,6.1Zm0-15.7-3.5-6.2,3.5-6.1H202l3.6,6.1-3.6,6.2Zm0-15.8-3.5-6.2,3.5-6.1H202l3.6,6.1-3.6,6.2Zm0-15.8-3.5-6.2,3.5-6.1H202l3.6,6.1-3.6,6.2Zm0-15.8-3.5-6.2,3.5-6.1H202l3.6,6.1-3.6,6.2Zm0-15.8-3.5-6.2,3.5-6.1H202l3.6,6.1-3.6,6.2Zm0-15.8-3.5-6.1,3.5-6.2H202l3.6,6.2-3.6,6.1Zm0-15.8-3.5-6.1,3.5-6.2H202l3.6,6.2-3.6,6.1Zm0-15.8-3.5-6.1,3.5-6.2H202l3.6,6.2-3.6,6.1Zm0-15.8L191.4,93l3.5-6.2H202l3.6,6.2L202,99.1Zm0-31.5-3.5-6.2,3.5-6.2H202l3.6,6.2L202,67.6Zm13.7,260.5-3.5-6.2,3.5-6.1h7.1l3.6,6.1-3.6,6.2Zm0-15.8-3.5-6.1,3.5-6.2h7.1l3.6,6.2-3.6,6.1Zm0-15.8-3.5-6.1,3.5-6.2h7.1l3.6,6.2-3.6,6.1Zm0-15.8-3.5-6.1,3.5-6.2h7.1l3.6,6.2-3.6,6.1Zm0-15.8-3.5-6.1,3.5-6.2h7.1l3.6,6.2-3.6,6.1Zm0-15.8-3.5-6.1,3.5-6.2h7.1l3.6,6.2-3.6,6.1Zm0-15.7-3.5-6.2,3.5-6.2h7.1l3.6,6.2-3.6,6.2Zm0-15.8-3.5-6.2,3.5-6.1h7.1l3.6,6.1-3.6,6.2Zm0-15.8-3.5-6.2,3.5-6.1h7.1l3.6,6.1-3.6,6.2Zm0-15.8-3.5-6.2,3.5-6.1h7.1l3.6,6.1-3.6,6.2Zm0-15.8-3.5-6.2,3.5-6.1h7.1l3.6,6.1-3.6,6.2Zm0-15.8-3.5-6.2,3.5-6.1h7.1l3.6,6.1-3.6,6.2Zm0-15.8-3.5-6.1,3.5-6.2h7.1l3.6,6.2-3.6,6.1Zm0-15.8-3.5-6.1,3.5-6.2h7.1l3.6,6.2-3.6,6.1Zm0-15.8-3.5-6.1,3.5-6.2h7.1l3.6,6.2-3.6,6.1Zm0-63.1-3.5-6.2,3.5-6.1h7.1l3.6,6.1-3.6,6.2ZM181.3,296.5l-3.5-6.1,3.5-6.2h7.1l3.6,6.2-3.6,6.1Zm0-15.8-3.5-6.1,3.5-6.2h7.1l3.6,6.2-3.6,6.1Zm0-15.8-3.5-6.1,3.5-6.2h7.1l3.6,6.2-3.6,6.1Zm0-15.8-3.5-6.1,3.5-6.2h7.1L192,243l-3.6,6.1Zm0-15.7-3.5-6.2,3.5-6.2h7.1l3.6,6.2-3.6,6.2Zm0-15.8-3.5-6.2,3.5-6.1h7.1l3.6,6.1-3.6,6.2Zm0-15.8-3.5-6.2,3.5-6.1h7.1l3.6,6.1-3.6,6.2Zm0-15.8-3.5-6.2,3.5-6.1h7.1l3.6,6.1-3.6,6.2Zm0-15.8-3.5-6.2,3.5-6.1h7.1L192,164l-3.6,6.2Zm0-31.6-3.5-6.1,3.5-6.2h7.1l3.6,6.2-3.6,6.1Zm0-15.8-3.5-6.1,3.5-6.2h7.1l3.6,6.2-3.6,6.1Zm0-15.8-3.5-6.1,3.5-6.2h7.1l3.6,6.2-3.6,6.1Zm0-15.8-3.5-6.1,3.5-6.2h7.1l3.6,6.2-3.6,6.1Zm0-15.8-3.5-6.1,3.5-6.2h7.1l3.6,6.2-3.6,6.1ZM167.6,272.8l-3.6-6.1,3.6-6.2h7.1l3.5,6.2-3.5,6.1Zm0-15.8-3.6-6.1,3.6-6.2h7.1l3.5,6.2-3.5,6.1Zm0-15.8-3.6-6.1,3.6-6.2h7.1l3.5,6.2-3.5,6.1Zm0-15.7-3.6-6.2,3.6-6.1h7.1l3.5,6.1-3.5,6.2Zm0-15.8-3.6-6.2,3.6-6.1h7.1l3.5,6.1-3.5,6.2Zm0-15.8-3.6-6.2,3.6-6.1h7.1l3.5,6.1-3.5,6.2Zm0-15.8-3.6-6.2,3.6-6.1h7.1l3.5,6.1-3.5,6.2Zm0-15.8-3.6-6.2,3.6-6.1h7.1l3.5,6.1-3.5,6.2Zm0-15.8-3.6-6.1,3.6-6.2h7.1l3.5,6.2-3.5,6.1Zm0-15.8-3.6-6.1,3.6-6.2h7.1l3.5,6.2-3.5,6.1Zm0-15.8-3.6-6.1,3.6-6.2h7.1l3.5,6.2-3.5,6.1Zm0-15.8L164,93l3.6-6.2h7.1l3.5,6.2-3.5,6.1Zm0-15.8L164,77.2l3.6-6.2h7.1l3.5,6.2-3.5,6.1Zm0-15.7L164,61.4l3.6-6.2h7.1l3.5,6.2-3.5,6.2ZM140.2,209.7l-3.5-6.2,3.5-6.1h7.1l3.6,6.1-3.6,6.2Zm0-15.8-3.5-6.2,3.5-6.1h7.1l3.6,6.1-3.6,6.2Zm0-15.8-3.5-6.2,3.5-6.1h7.1l3.6,6.1-3.6,6.2Zm0-15.8-3.5-6.2,3.5-6.1h7.1l3.6,6.1-3.6,6.2Zm0-15.8-3.5-6.1,3.5-6.2h7.1l3.6,6.2-3.6,6.1Zm0-15.8-3.5-6.1,3.5-6.2h7.1l3.6,6.2-3.6,6.1Zm0-15.8-3.5-6.1,3.5-6.2h7.1l3.6,6.2-3.6,6.1Zm0-31.6-3.5-6.1,3.5-6.2h7.1l3.6,6.2-3.6,6.1ZM112.9,193.9l-3.6-6.2,3.6-6.1H120l3.5,6.1-3.5,6.2Zm0-15.8-3.6-6.2,3.6-6.1H120l3.5,6.1-3.5,6.2Zm0-15.8-3.6-6.2,3.6-6.1H120l3.5,6.1-3.5,6.2Zm0-15.8-3.6-6.1,3.6-6.2H120l3.5,6.2-3.5,6.1Zm0-15.8-3.6-6.1,3.6-6.2H120l3.5,6.2-3.5,6.1Zm0-15.8-3.6-6.1,3.6-6.2H120l3.5,6.2-3.5,6.1Zm41.1,150-3.6-6.1,3.6-6.2h7.1l3.5,6.2-3.5,6.1Zm0-15.8-3.6-6.1,3.6-6.2h7.1l3.5,6.2-3.5,6.1Zm0-15.7-3.6-6.2L154,221h7.1l3.5,6.2-3.5,6.2Zm0-15.8-3.6-6.2,3.6-6.1h7.1l3.5,6.1-3.5,6.2Zm0-15.8-3.6-6.2,3.6-6.1h7.1l3.5,6.1-3.5,6.2Zm0-15.8-3.6-6.2,3.6-6.1h7.1l3.5,6.1-3.5,6.2Zm0-15.8-3.6-6.2,3.6-6.1h7.1l3.5,6.1-3.5,6.2Zm0-15.8-3.6-6.2,3.6-6.1h7.1l3.5,6.1-3.5,6.2Zm0-15.8-3.6-6.1,3.6-6.2h7.1l3.5,6.2-3.5,6.1Zm0-15.8-3.6-6.1,3.6-6.2h7.1l3.5,6.2-3.5,6.1Zm0-31.6-3.6-6.1,3.6-6.2h7.1l3.5,6.2-3.5,6.1ZM126.6,201.8l-3.5-6.2,3.5-6.1h7.1l3.6,6.1-3.6,6.2Zm0-15.8-3.5-6.2,3.5-6.1h7.1l3.6,6.1-3.6,6.2Zm0-15.8-3.5-6.2,3.5-6.1h7.1l3.6,6.1-3.6,6.2Zm0-15.8-3.5-6.2,3.5-6.1h7.1l3.6,6.1-3.6,6.2Zm0-15.8-3.5-6.1,3.5-6.2h7.1l3.6,6.2-3.6,6.1Zm0-15.8-3.5-6.1,3.5-6.2h7.1l3.6,6.2-3.6,6.1Zm0-15.8-3.5-6.1,3.5-6.2h7.1l3.6,6.2-3.6,6.1Zm-41,55.3-3.5-6.2,3.5-6.1h7.1l3.6,6.1-3.6,6.2Zm0-15.8-3.5-6.1,3.5-6.2h7.1l3.6,6.2-3.6,6.1Zm0-15.8-3.5-6.1,3.5-6.2h7.1l3.6,6.2-3.6,6.1Zm0-15.8-3.5-6.1,3.5-6.2h7.1l3.6,6.2-3.6,6.1Zm13.7,55.3L95.7,164l3.6-6.1h7.1l3.5,6.1-3.5,6.2Zm0-15.8-3.6-6.2,3.6-6.1h7.1l3.5,6.1-3.5,6.2Zm0-15.8-3.6-6.1,3.6-6.2h7.1l3.5,6.2-3.5,6.1Zm0-15.8-3.6-6.1,3.6-6.2h7.1l3.5,6.2-3.5,6.1ZM72,154.4l-3.6-6.2,3.6-6.1h7.1l3.6,6.1-3.6,6.2Zm0-15.8-3.6-6.1,3.6-6.2h7.1l3.6,6.2-3.6,6.1Zm0-15.8-3.6-6.1,3.6-6.2h7.1l3.6,6.2-3.6,6.1ZM72,107l-3.6-6.1L72,94.7h7.1l3.6,6.2L79.1,107ZM58.3,146.5l-3.6-6.1,3.6-6.2h7.1l3.5,6.2-3.5,6.1Zm0-15.8-3.6-6.1,3.6-6.2h7.1l3.5,6.2-3.5,6.1Zm0-15.8-3.6-6.1,3.6-6.2h7.1l3.5,6.2-3.5,6.1ZM30.9,320.2,27.4,314l3.5-6.1H38l3.6,6.1L38,320.2Zm0-142.1-3.5-6.2,3.5-6.1H38l3.6,6.1L38,178.1Zm0-15.8-3.5-6.2,3.5-6.1H38l3.6,6.1L38,162.3Zm0-15.8-3.5-6.1,3.5-6.2H38l3.6,6.2L38,146.5Zm0-15.8-3.5-6.1,3.5-6.2H38l3.6,6.2L38,130.7Zm0-15.8-3.5-6.1,3.5-6.2H38l3.6,6.2L38,114.9Zm0-15.8L27.4,93l3.5-6.2H38L41.6,93,38,99.1ZM3.6,193.9,0,187.7l3.6-6.1h7.1l3.5,6.1-3.5,6.2Zm0-31.6L0,156.1,3.6,150h7.1l3.5,6.1-3.5,6.2Zm0-31.6L0,124.6l3.6-6.2h7.1l3.5,6.2-3.5,6.1Zm0-15.8L0,108.8l3.6-6.2h7.1l3.5,6.2-3.5,6.1Zm41,213.2-3.5-6.2,3.5-6.1h7.2l3.5,6.1-3.5,6.2Zm0-173.7-3.5-6.2,3.5-6.1h7.2l3.5,6.1-3.5,6.2Zm0-15.8-3.5-6.1,3.5-6.2h7.2l3.5,6.2-3.5,6.1Zm0-15.8-3.5-6.1,3.5-6.2h7.2l3.5,6.2-3.5,6.1Zm0-15.8-3.5-6.1,3.5-6.2h7.2l3.5,6.2L51.8,107ZM17.3,186l-3.6-6.2,3.6-6.1h7.1l3.6,6.1L24.4,186Zm0-31.6-3.6-6.2,3.6-6.1h7.1l3.6,6.1-3.6,6.2Zm0-15.8-3.6-6.1,3.6-6.2h7.1l3.6,6.2-3.6,6.1Zm0-15.8-3.6-6.1,3.6-6.2h7.1l3.6,6.2-3.6,6.1Zm0-15.8-3.6-6.1,3.6-6.2h7.1l3.6,6.2L24.4,107ZM768.9,304.4l-3.5-6.1,3.5-6.2H776l3.6,6.2-3.6,6.1Zm0-15.8-3.5-6.1,3.5-6.2H776l3.6,6.2-3.6,6.1Zm0-15.8-3.5-6.1,3.5-6.2H776l3.6,6.2-3.6,6.1Zm0-15.8-3.5-6.1,3.5-6.2H776l3.6,6.2L776,257Zm0-15.8-3.5-6.1,3.5-6.2H776l3.6,6.2-3.6,6.1Zm0-15.7-3.5-6.2,3.5-6.1H776l3.6,6.1-3.6,6.2Zm0-15.8-3.5-6.2,3.5-6.1H776l3.6,6.1-3.6,6.2Zm0-15.8-3.5-6.2,3.5-6.1H776l3.6,6.1-3.6,6.2Zm0-15.8-3.5-6.2,3.5-6.1H776l3.6,6.1-3.6,6.2Zm0-15.8-3.5-6.2,3.5-6.1H776l3.6,6.1-3.6,6.2Zm0-15.8-3.5-6.1,3.5-6.2H776l3.6,6.2-3.6,6.1Zm0-15.8-3.5-6.1,3.5-6.2H776l3.6,6.2-3.6,6.1Zm0-15.8-3.5-6.1,3.5-6.2H776l3.6,6.2-3.6,6.1Zm0-47.3-3.5-6.2,3.5-6.2H776l3.6,6.2L776,67.6ZM741.6,336l-3.6-6.2,3.6-6.1h7.1l3.5,6.1-3.5,6.2Zm0-15.8L738,314l3.6-6.1h7.1l3.5,6.1-3.5,6.2Zm0-31.6-3.6-6.1,3.6-6.2h7.1l3.5,6.2-3.5,6.1Zm0-15.8-3.6-6.1,3.6-6.2h7.1l3.5,6.2-3.5,6.1Zm0-47.3-3.6-6.2,3.6-6.1h7.1l3.5,6.1-3.5,6.2Zm0-15.8-3.6-6.2,3.6-6.1h7.1l3.5,6.1-3.5,6.2Zm0-15.8-3.6-6.2,3.6-6.1h7.1l3.5,6.1-3.5,6.2Zm0-15.8-3.6-6.2,3.6-6.1h7.1l3.5,6.1-3.5,6.2Zm0-15.8-3.6-6.2,3.6-6.1h7.1l3.5,6.1-3.5,6.2Zm0-15.8-3.6-6.1,3.6-6.2h7.1l3.5,6.2-3.5,6.1Zm0-15.8-3.6-6.1,3.6-6.2h7.1l3.5,6.2-3.5,6.1Zm0-15.8-3.6-6.1,3.6-6.2h7.1l3.5,6.2-3.5,6.1Zm0-78.9L738,29.8l3.6-6.1h7.1l3.5,6.1L748.7,36Zm13.7,292.1-3.6-6.2,3.6-6.1h7.1l3.5,6.1-3.5,6.2Zm0-15.8-3.6-6.1,3.6-6.2h7.1l3.5,6.2-3.5,6.1Zm0-15.8-3.6-6.1,3.6-6.2h7.1l3.5,6.2-3.5,6.1Zm0-15.8-3.6-6.1,3.6-6.2h7.1l3.5,6.2-3.5,6.1Zm0-15.8-3.6-6.1,3.6-6.2h7.1l3.5,6.2-3.5,6.1Zm0-15.8-3.6-6.1,3.6-6.2h7.1l3.5,6.2-3.5,6.1Zm0-15.7-3.6-6.2,3.6-6.2h7.1l3.5,6.2-3.5,6.2Zm0-15.8-3.6-6.2,3.6-6.1h7.1l3.5,6.1-3.5,6.2Zm0-15.8-3.6-6.2,3.6-6.1h7.1l3.5,6.1-3.5,6.2Zm0-15.8-3.6-6.2,3.6-6.1h7.1l3.5,6.1-3.5,6.2Zm0-15.8-3.6-6.2,3.6-6.1h7.1l3.5,6.1-3.5,6.2Zm0-15.8-3.6-6.2,3.6-6.1h7.1l3.5,6.1-3.5,6.2Zm0-15.8-3.6-6.1,3.6-6.2h7.1l3.5,6.2-3.5,6.1Zm0-15.8-3.6-6.1,3.6-6.2h7.1l3.5,6.2-3.5,6.1Zm0-31.6-3.6-6.1,3.6-6.2h7.1l3.5,6.2-3.5,6.1Zm0-15.8-3.6-6.1,3.6-6.2h7.1l3.5,6.2-3.5,6.1Zm0-47.3-3.6-6.2,3.6-6.1h7.1l3.5,6.1-3.5,6.2ZM728,486l-3.6-6.1,3.6-6.2h7.1l3.5,6.2-3.5,6.1Zm0-15.8-3.6-6.1,3.6-6.2h7.1l3.5,6.2-3.5,6.1Zm0-15.8-3.6-6.1,3.6-6.2h7.1l3.5,6.2-3.5,6.1Zm0-94.7-3.6-6.2,3.6-6.1h7.1l3.5,6.1-3.5,6.2Zm0-15.8-3.6-6.2,3.6-6.1h7.1l3.5,6.1-3.5,6.2Zm0-15.8-3.6-6.2,3.6-6.1h7.1l3.5,6.1-3.5,6.2Zm0-15.8-3.6-6.1L728,300h7.1l3.5,6.2-3.5,6.1Zm0-31.6-3.6-6.1,3.6-6.2h7.1l3.5,6.2-3.5,6.1Zm0-15.8-3.6-6.1,3.6-6.2h7.1l3.5,6.2-3.5,6.1Zm0-15.8-3.6-6.1,3.6-6.2h7.1l3.5,6.2-3.5,6.1Zm0-31.5-3.6-6.2,3.6-6.1h7.1l3.5,6.1-3.5,6.2Zm0-15.8-3.6-6.2,3.6-6.1h7.1l3.5,6.1-3.5,6.2Zm0-15.8-3.6-6.2,3.6-6.1h7.1l3.5,6.1-3.5,6.2Zm0-15.8-3.6-6.2,3.6-6.1h7.1l3.5,6.1-3.5,6.2Zm0-15.8-3.6-6.2,3.6-6.1h7.1l3.5,6.1-3.5,6.2Zm0-15.8-3.6-6.1,3.6-6.2h7.1l3.5,6.2-3.5,6.1Zm0-15.8-3.6-6.1,3.6-6.2h7.1l3.5,6.2-3.5,6.1Zm0,252.7-3.6-6.2,3.6-6.1h7.1l3.5,6.1-3.5,6.2Zm-13.8,86.8-3.5-6.1,3.5-6.2h7.1l3.6,6.2-3.6,6.1Zm0-78.9-3.5-6.2,3.5-6.1h7.1l3.6,6.1-3.6,6.2Zm0-31.6-3.5-6.2,3.5-6.1h7.1l3.6,6.1-3.6,6.2Zm0-15.8-3.5-6.2,3.5-6.1h7.1l3.6,6.1-3.6,6.2Zm0-15.8-3.5-6.2,3.5-6.1h7.1l3.6,6.1-3.6,6.2Zm0-15.8-3.5-6.1,3.5-6.2h7.1l3.6,6.2-3.6,6.1Zm0-15.8-3.5-6.1,3.5-6.2h7.1l3.6,6.2-3.6,6.1Zm0-15.8-3.5-6.1,3.5-6.2h7.1l3.6,6.2-3.6,6.1Zm0-15.8-3.5-6.1,3.5-6.2h7.1l3.6,6.2-3.6,6.1Zm0-15.8-3.5-6.1,3.5-6.2h7.1l3.6,6.2-3.6,6.1Zm0-15.7-3.5-6.2,3.5-6.1h7.1l3.6,6.1-3.6,6.2Zm0-15.8-3.5-6.2,3.5-6.1h7.1l3.6,6.1-3.6,6.2Zm0-15.8-3.5-6.2,3.5-6.1h7.1l3.6,6.1-3.6,6.2Zm0-15.8-3.5-6.2,3.5-6.1h7.1l3.6,6.1-3.6,6.2Zm0-15.8-3.5-6.2,3.5-6.1h7.1l3.6,6.1-3.6,6.2Zm0-15.8-3.5-6.1,3.5-6.2h7.1l3.6,6.2-3.6,6.1Zm0-15.8-3.5-6.1,3.5-6.2h7.1l3.6,6.2-3.6,6.1Zm0,236.9-3.5-6.2,3.5-6.1h7.1l3.6,6.1-3.6,6.2Zm-27.3,78.9-3.6-6.1,3.6-6.2H694l3.5,6.2-3.5,6.1Zm0-15.8-3.6-6.1,3.6-6.2H694l3.5,6.2-3.5,6.1Zm0-15.8-3.6-6.1,3.6-6.2H694l3.5,6.2-3.5,6.1Zm0-15.7-3.6-6.2,3.6-6.1H694l3.5,6.1-3.5,6.2Zm0-15.8-3.6-6.2,3.6-6.1H694l3.5,6.1-3.5,6.2Zm0-31.6-3.6-6.2,3.6-6.1H694l3.5,6.1-3.5,6.2Zm0-15.8-3.6-6.2,3.6-6.1H694l3.5,6.1L694,336Zm0-47.4-3.6-6.1,3.6-6.2H694l3.5,6.2-3.5,6.1Zm0-15.8-3.6-6.1,3.6-6.2H694l3.5,6.2-3.5,6.1Zm0-15.8-3.6-6.1,3.6-6.2H694l3.5,6.2L694,257Zm0-31.5-3.6-6.2,3.6-6.1H694l3.5,6.1-3.5,6.2Zm0-15.8-3.6-6.2,3.6-6.1H694l3.5,6.1-3.5,6.2Zm0-15.8-3.6-6.2,3.6-6.1H694l3.5,6.1-3.5,6.2Zm0-15.8-3.6-6.2,3.6-6.1H694l3.5,6.1-3.5,6.2Zm0-15.8-3.6-6.2,3.6-6.1H694l3.5,6.1-3.5,6.2Zm0-15.8-3.6-6.1,3.6-6.2H694l3.5,6.2-3.5,6.1Zm0-31.6-3.6-6.1,3.6-6.2H694l3.5,6.2-3.5,6.1Zm0,252.7-3.6-6.2,3.6-6.1H694l3.5,6.1-3.5,6.2ZM659.5,509.7l-3.5-6.2,3.5-6.1h7.1l3.6,6.1-3.6,6.2Zm0-15.8-3.5-6.2,3.5-6.1h7.1l3.6,6.1-3.6,6.2Zm0-15.8L656,472l3.5-6.2h7.1l3.6,6.2-3.6,6.1Zm0-15.8-3.5-6.1,3.5-6.2h7.1l3.6,6.2-3.6,6.1Zm0-15.8-3.5-6.1,3.5-6.2h7.1l3.6,6.2-3.6,6.1Zm0-15.8-3.5-6.1,3.5-6.2h7.1l3.6,6.2-3.6,6.1Zm0-15.8-3.5-6.1,3.5-6.2h7.1l3.6,6.2-3.6,6.1Zm0-15.7L656,393l3.5-6.1h7.1l3.6,6.1-3.6,6.2Zm0-15.8-3.5-6.2,3.5-6.1h7.1l3.6,6.1-3.6,6.2Zm0-31.6-3.5-6.2,3.5-6.1h7.1l3.6,6.1-3.6,6.2Zm0-15.8-3.5-6.2,3.5-6.1h7.1l3.6,6.1-3.6,6.2Zm0-15.8L656,314l3.5-6.1h7.1l3.6,6.1-3.6,6.2Zm0-15.8-3.5-6.1,3.5-6.2h7.1l3.6,6.2-3.6,6.1Zm0-15.8-3.5-6.1,3.5-6.2h7.1l3.6,6.2-3.6,6.1Zm0-31.6-3.5-6.1,3.5-6.2h7.1l3.6,6.2-3.6,6.1Zm0-15.8-3.5-6.1,3.5-6.2h7.1l3.6,6.2-3.6,6.1Zm0-15.7-3.5-6.2,3.5-6.1h7.1l3.6,6.1-3.6,6.2Zm0-15.8-3.5-6.2,3.5-6.1h7.1l3.6,6.1-3.6,6.2Zm0-15.8-3.5-6.2,3.5-6.1h7.1l3.6,6.1-3.6,6.2Zm0-15.8-3.5-6.2,3.5-6.1h7.1l3.6,6.1-3.6,6.2Zm0-15.8-3.5-6.2,3.5-6.1h7.1l3.6,6.1-3.6,6.2Zm0-15.8-3.5-6.1,3.5-6.2h7.1l3.6,6.2-3.6,6.1Zm0-15.8-3.5-6.1,3.5-6.2h7.1l3.6,6.2-3.6,6.1Zm0-15.8-3.5-6.1,3.5-6.2h7.1l3.6,6.2-3.6,6.1Zm0-15.8L656,93l3.5-6.2h7.1l3.6,6.2-3.6,6.1Zm0-63.1L656,29.8l3.5-6.1h7.1l3.6,6.1L666.6,36Zm0,331.6-3.5-6.2,3.5-6.1h7.1l3.6,6.1-3.6,6.2Zm41.1,71-3.5-6.1,3.5-6.2h7.1l3.6,6.2-3.6,6.1Zm0-15.8-3.5-6.1,3.5-6.2h7.1l3.6,6.2-3.6,6.1Zm0-15.7-3.5-6.2,3.5-6.2h7.1l3.6,6.2-3.6,6.2Zm0-15.8-3.5-6.2,3.5-6.1h7.1l3.6,6.1-3.6,6.2Zm0-31.6-3.5-6.2,3.5-6.1h7.1l3.6,6.1-3.6,6.2Zm0-47.4-3.5-6.1,3.5-6.2h7.1l3.6,6.2-3.6,6.1Zm0-15.8-3.5-6.1,3.5-6.2h7.1l3.6,6.2-3.6,6.1Zm0-15.8-3.5-6.1,3.5-6.2h7.1l3.6,6.2-3.6,6.1Zm0-15.8-3.5-6.1,3.5-6.2h7.1l3.6,6.2-3.6,6.1Zm0-15.8-3.5-6.1,3.5-6.2h7.1l3.6,6.2-3.6,6.1Zm0-15.7-3.5-6.2,3.5-6.2h7.1l3.6,6.2-3.6,6.2Zm0-15.8-3.5-6.2,3.5-6.1h7.1l3.6,6.1-3.6,6.2Zm0-15.8-3.5-6.2,3.5-6.1h7.1l3.6,6.1-3.6,6.2Zm0-15.8-3.5-6.2,3.5-6.1h7.1l3.6,6.1-3.6,6.2Zm0-15.8-3.5-6.2,3.5-6.1h7.1l3.6,6.1-3.6,6.2Zm0-15.8-3.5-6.2,3.5-6.1h7.1l3.6,6.1-3.6,6.2Zm0,221.1-3.5-6.2,3.5-6.1h7.1l3.6,6.1-3.6,6.2ZM673.3,486l-3.6-6.1,3.6-6.2h7.1l3.5,6.2-3.5,6.1Zm0-15.8-3.6-6.1,3.6-6.2h7.1l3.5,6.2-3.5,6.1Zm0-15.8-3.6-6.1,3.6-6.2h7.1l3.5,6.2-3.5,6.1Zm0-15.8-3.6-6.1,3.6-6.2h7.1l3.5,6.2-3.5,6.1Zm0-15.8-3.6-6.1,3.6-6.2h7.1l3.5,6.2-3.5,6.1Zm0-15.7-3.6-6.2,3.6-6.2h7.1l3.5,6.2-3.5,6.2Zm0-15.8-3.6-6.2,3.6-6.1h7.1l3.5,6.1-3.5,6.2Zm0-31.6-3.6-6.2,3.6-6.1h7.1l3.5,6.1-3.5,6.2Zm0-15.8-3.6-6.2,3.6-6.1h7.1l3.5,6.1-3.5,6.2Zm0-15.8-3.6-6.2,3.6-6.1h7.1l3.5,6.1-3.5,6.2Zm0-15.8-3.6-6.1,3.6-6.2h7.1l3.5,6.2-3.5,6.1Zm0-15.8-3.6-6.1,3.6-6.2h7.1l3.5,6.2-3.5,6.1Zm0-31.6-3.6-6.1,3.6-6.2h7.1l3.5,6.2-3.5,6.1Zm0-15.8-3.6-6.1,3.6-6.2h7.1l3.5,6.2-3.5,6.1Zm0-31.5-3.6-6.2,3.6-6.1h7.1l3.5,6.1-3.5,6.2Zm0-15.8-3.6-6.2,3.6-6.1h7.1l3.5,6.1-3.5,6.2Zm0-15.8-3.6-6.2,3.6-6.1h7.1l3.5,6.1-3.5,6.2Zm0-15.8-3.6-6.2,3.6-6.1h7.1l3.5,6.1-3.5,6.2Zm0-15.8-3.6-6.2,3.6-6.1h7.1l3.5,6.1-3.5,6.2Zm0-15.8-3.6-6.1,3.6-6.2h7.1l3.5,6.2-3.5,6.1Zm0-15.8-3.6-6.1,3.6-6.2h7.1l3.5,6.2-3.5,6.1Zm0,252.7-3.6-6.2,3.6-6.1h7.1l3.5,6.1-3.5,6.2Zm-41,134.2-3.6-6.2,3.6-6.1h7.1l3.5,6.1-3.5,6.2Zm0-15.8-3.6-6.2,3.6-6.1h7.1l3.5,6.1-3.5,6.2Zm0-15.8-3.6-6.1,3.6-6.2h7.1l3.5,6.2-3.5,6.1Zm0-15.8-3.6-6.1,3.6-6.2h7.1l3.5,6.2-3.5,6.1Zm0-15.8-3.6-6.1,3.6-6.2h7.1l3.5,6.2-3.5,6.1Zm0-15.8-3.6-6.1,3.6-6.2h7.1l3.5,6.2-3.5,6.1Zm0-15.8-3.6-6.1,3.6-6.2h7.1l3.5,6.2-3.5,6.1Zm0-15.7-3.6-6.2,3.6-6.1h7.1l3.5,6.1-3.5,6.2Zm0-15.8-3.6-6.2,3.6-6.1h7.1l3.5,6.1-3.5,6.2Zm0-31.6-3.6-6.2,3.6-6.1h7.1l3.5,6.1-3.5,6.2Zm0-15.8-3.6-6.2,3.6-6.1h7.1l3.5,6.1-3.5,6.2Zm0-15.8-3.6-6.2,3.6-6.1h7.1l3.5,6.1-3.5,6.2Zm0-15.8-3.6-6.1,3.6-6.2h7.1l3.5,6.2-3.5,6.1Zm0-15.8-3.6-6.1,3.6-6.2h7.1l3.5,6.2-3.5,6.1Zm0-47.4-3.6-6.1,3.6-6.2h7.1l3.5,6.2-3.5,6.1Zm0-15.7-3.6-6.2,3.6-6.1h7.1l3.5,6.1-3.5,6.2Zm0-15.8-3.6-6.2,3.6-6.1h7.1l3.5,6.1-3.5,6.2Zm0-15.8-3.6-6.2,3.6-6.1h7.1l3.5,6.1-3.5,6.2Zm0-63.2-3.6-6.1,3.6-6.2h7.1l3.5,6.2-3.5,6.1Zm0-15.8-3.6-6.1,3.6-6.2h7.1l3.5,6.2-3.5,6.1Zm0-63.1-3.6-6.2,3.6-6.1h7.1l3.5,6.1-3.5,6.2Zm0-15.8-3.6-6.2,3.6-6.1h7.1l3.5,6.1L639.4,36Zm0,331.6-3.6-6.2,3.6-6.1h7.1l3.5,6.1-3.5,6.2Zm13.6,150-3.5-6.2,3.5-6.1H653l3.6,6.1-3.6,6.2Zm0-15.8-3.5-6.2,3.5-6.1H653l3.6,6.1-3.6,6.2Zm0-15.8-3.5-6.1,3.5-6.2H653l3.6,6.2L653,486Zm0-15.8-3.5-6.1,3.5-6.2H653l3.6,6.2-3.6,6.1Zm0-15.8-3.5-6.1,3.5-6.2H653l3.6,6.2-3.6,6.1Zm0-15.8-3.5-6.1,3.5-6.2H653l3.6,6.2-3.6,6.1Zm0-15.8-3.5-6.1,3.5-6.2H653l3.6,6.2-3.6,6.1Zm0-15.7-3.5-6.2,3.5-6.2H653l3.6,6.2-3.6,6.2Zm0-15.8-3.5-6.2,3.5-6.1H653l3.6,6.1-3.6,6.2Zm0-31.6-3.5-6.2,3.5-6.1H653l3.6,6.1-3.6,6.2Zm0-15.8-3.5-6.2,3.5-6.1H653l3.6,6.1-3.6,6.2Zm0-15.8-3.5-6.2,3.5-6.1H653l3.6,6.1-3.6,6.2Zm0-15.8-3.5-6.1,3.5-6.2H653l3.6,6.2-3.6,6.1Zm0-15.8-3.5-6.1,3.5-6.2H653l3.6,6.2-3.6,6.1Zm0-47.4-3.5-6.1,3.5-6.2H653l3.6,6.2-3.6,6.1Zm0-15.7-3.5-6.2,3.5-6.2H653l3.6,6.2-3.6,6.2Zm0-15.8-3.5-6.2,3.5-6.1H653l3.6,6.1-3.6,6.2Zm0-15.8-3.5-6.2,3.5-6.1H653l3.6,6.1-3.6,6.2Zm0-15.8-3.5-6.2,3.5-6.1H653l3.6,6.1L653,186Zm0-15.8-3.5-6.2,3.5-6.1H653l3.6,6.1-3.6,6.2Zm0-15.8-3.5-6.2,3.5-6.1H653l3.6,6.1-3.6,6.2Zm0-31.6-3.5-6.1,3.5-6.2H653l3.6,6.2-3.6,6.1Zm0-15.8-3.5-6.1,3.5-6.2H653l3.6,6.2L653,107Zm0,268.5-3.5-6.2,3.5-6.1H653l3.6,6.1-3.6,6.2ZM618.7,486l-3.6-6.1,3.6-6.2h7.1l3.5,6.2-3.5,6.1Zm0-15.8-3.6-6.1,3.6-6.2h7.1l3.5,6.2-3.5,6.1Zm0-15.8-3.6-6.1,3.6-6.2h7.1l3.5,6.2-3.5,6.1Zm0-15.8-3.6-6.1,3.6-6.2h7.1l3.5,6.2-3.5,6.1Zm0-15.8-3.6-6.1,3.6-6.2h7.1l3.5,6.2-3.5,6.1Zm0-15.7-3.6-6.2,3.6-6.2h7.1l3.5,6.2-3.5,6.2Zm0-15.8-3.6-6.2,3.6-6.1h7.1l3.5,6.1-3.5,6.2Zm0-31.6-3.6-6.2,3.6-6.1h7.1l3.5,6.1-3.5,6.2Zm0-15.8-3.6-6.2,3.6-6.1h7.1l3.5,6.1-3.5,6.2Zm0-15.8-3.6-6.2,3.6-6.1h7.1l3.5,6.1-3.5,6.2Zm0-15.8-3.6-6.1,3.6-6.2h7.1l3.5,6.2-3.5,6.1Zm0-15.8-3.6-6.1,3.6-6.2h7.1l3.5,6.2-3.5,6.1Zm0-47.4-3.6-6.1,3.6-6.2h7.1l3.5,6.2-3.5,6.1Zm0-15.7-3.6-6.2,3.6-6.2h7.1l3.5,6.2-3.5,6.2Zm0-15.8-3.6-6.2,3.6-6.1h7.1l3.5,6.1-3.5,6.2Zm0-15.8-3.6-6.2,3.6-6.1h7.1l3.5,6.1-3.5,6.2Zm0-31.6-3.6-6.2,3.6-6.1h7.1l3.5,6.1-3.5,6.2Zm0-15.8-3.6-6.2,3.6-6.1h7.1l3.5,6.1-3.5,6.2Zm0-15.8-3.6-6.1,3.6-6.2h7.1l3.5,6.2-3.5,6.1Zm0-15.8-3.6-6.1,3.6-6.2h7.1l3.5,6.2-3.5,6.1Zm0-63.1-3.6-6.2,3.6-6.1h7.1l3.5,6.1-3.5,6.2Zm0-15.8-3.6-6.2,3.6-6.1h7.1l3.5,6.1-3.5,6.2Zm0,331.6-3.6-6.2,3.6-6.1h7.1l3.5,6.1-3.5,6.2Zm-13.8,23.7-3.5-6.2,3.5-6.1H612l3.6,6.1-3.6,6.2Zm0-15.8-3.5-6.2,3.5-6.1H612l3.6,6.1-3.6,6.2Zm0-31.6-3.5-6.2,3.5-6.1H612l3.6,6.1-3.6,6.2Zm0-15.8-3.5-6.2,3.5-6.1H612l3.6,6.1L612,336Zm0-15.8-3.5-6.2,3.5-6.1H612l3.6,6.1-3.6,6.2Zm0-15.8-3.5-6.1,3.5-6.2H612l3.6,6.2-3.6,6.1Zm0-15.8-3.5-6.1,3.5-6.2H612l3.6,6.2-3.6,6.1Zm0-15.8-3.5-6.1,3.5-6.2H612l3.6,6.2-3.6,6.1Zm0-31.6-3.5-6.1,3.5-6.2H612l3.6,6.2-3.6,6.1Zm0-15.7-3.5-6.2,3.5-6.1H612l3.6,6.1-3.6,6.2Zm0-15.8-3.5-6.2,3.5-6.1H612l3.6,6.1-3.6,6.2Zm0-15.8-3.5-6.2,3.5-6.1H612l3.6,6.1-3.6,6.2Zm0-15.8-3.5-6.2,3.5-6.1H612l3.6,6.1-3.6,6.2Zm0-15.8-3.5-6.2,3.5-6.1H612l3.6,6.1-3.6,6.2Zm0-15.8-3.5-6.1,3.5-6.2H612l3.6,6.2-3.6,6.1Zm0,221.1-3.5-6.2,3.5-6.1H612l3.6,6.1-3.6,6.2Zm-27.3-15.8-3.6-6.2,3.6-6.1h7.1l3.5,6.1-3.5,6.2Zm0-15.8-3.6-6.2,3.6-6.1h7.1l3.5,6.1-3.5,6.2Zm0-15.8L574,314l3.6-6.1h7.1l3.5,6.1-3.5,6.2Zm0-15.8-3.6-6.1,3.6-6.2h7.1l3.5,6.2-3.5,6.1Zm0-15.8-3.6-6.1,3.6-6.2h7.1l3.5,6.2-3.5,6.1Zm0-15.8-3.6-6.1,3.6-6.2h7.1l3.5,6.2-3.5,6.1Zm0-31.6-3.6-6.1,3.6-6.2h7.1l3.5,6.2-3.5,6.1Zm0-15.7-3.6-6.2,3.6-6.1h7.1l3.5,6.1-3.5,6.2Zm0-15.8-3.6-6.2,3.6-6.1h7.1l3.5,6.1-3.5,6.2Zm0,157.9-3.6-6.2,3.6-6.1h7.1l3.5,6.1-3.5,6.2Zm-27.4-15.8-3.5-6.2,3.5-6.1h7.1l3.6,6.1-3.6,6.2Zm0-15.8-3.5-6.2,3.5-6.1h7.1l3.6,6.1-3.6,6.2Zm0-15.8-3.5-6.2,3.5-6.1h7.1l3.6,6.1-3.6,6.2Zm0-15.8-3.5-6.1,3.5-6.2h7.1l3.6,6.2-3.6,6.1Zm0-15.8-3.5-6.1,3.5-6.2h7.1l3.6,6.2-3.6,6.1Zm0-15.8-3.5-6.1,3.5-6.2h7.1l3.6,6.2-3.6,6.1Zm0-15.8-3.5-6.1,3.5-6.2h7.1l3.6,6.2-3.6,6.1Zm0-15.8-3.5-6.1,3.5-6.2h7.1l3.6,6.2-3.6,6.1Zm0-63.1-3.5-6.2,3.5-6.1h7.1l3.6,6.1-3.6,6.2Zm0,189.5-3.5-6.2,3.5-6.1h7.1l3.6,6.1-3.6,6.2Zm41.1-7.9-3.5-6.2,3.5-6.1h7.1l3.6,6.1-3.6,6.2Zm0-15.8-3.5-6.2,3.5-6.1h7.1l3.6,6.1-3.6,6.2Zm0-15.8-3.5-6.2,3.5-6.1h7.1l3.6,6.1-3.6,6.2Zm0-15.8-3.5-6.1,3.5-6.2h7.1l3.6,6.2-3.6,6.1Zm0-15.8-3.5-6.1,3.5-6.2h7.1l3.6,6.2-3.6,6.1Zm0-15.8-3.5-6.1,3.5-6.2h7.1l3.6,6.2-3.6,6.1Zm0-47.3-3.5-6.2,3.5-6.2h7.1l3.6,6.2-3.6,6.2Zm0-15.8-3.5-6.2,3.5-6.1h7.1l3.6,6.1-3.6,6.2Zm0-15.8-3.5-6.2,3.5-6.1h7.1l3.6,6.1-3.6,6.2Zm0-31.6-3.5-6.2,3.5-6.1h7.1L602,164l-3.6,6.2Zm0-15.8-3.5-6.2,3.5-6.1h7.1l3.6,6.1-3.6,6.2Zm0,221.1-3.5-6.2,3.5-6.1h7.1l3.6,6.1-3.6,6.2ZM564,359.7l-3.6-6.2,3.6-6.1h7.1l3.5,6.1-3.5,6.2Zm0-15.8-3.6-6.2,3.6-6.1h7.1l3.5,6.1-3.5,6.2Zm0-15.8-3.6-6.2,3.6-6.1h7.1l3.5,6.1-3.5,6.2Zm0-15.8-3.6-6.1L564,300h7.1l3.5,6.2-3.5,6.1Zm0-15.8-3.6-6.1,3.6-6.2h7.1l3.5,6.2-3.5,6.1Zm0-15.8-3.6-6.1,3.6-6.2h7.1l3.5,6.2-3.5,6.1Zm0-31.6-3.6-6.1,3.6-6.2h7.1l3.5,6.2-3.5,6.1Zm0-15.7-3.6-6.2L564,221h7.1l3.5,6.2-3.5,6.2Zm0-15.8-3.6-6.2,3.6-6.1h7.1l3.5,6.1-3.5,6.2Zm0-15.8-3.6-6.2,3.6-6.1h7.1l3.5,6.1-3.5,6.2Zm0-15.8-3.6-6.2,3.6-6.1h7.1l3.5,6.1-3.5,6.2Zm0,189.5-3.6-6.2,3.6-6.1h7.1l3.5,6.1-3.5,6.2Zm-41.1-23.7-3.5-6.2,3.5-6.1H530l3.6,6.1-3.6,6.2Zm0-15.8-3.5-6.2,3.5-6.1H530l3.6,6.1L530,336Zm0-15.8-3.5-6.2,3.5-6.1H530l3.6,6.1-3.6,6.2Zm0-15.8-3.5-6.1,3.5-6.2H530l3.6,6.2-3.6,6.1Zm0,63.2-3.5-6.2,3.5-6.1H530l3.6,6.1-3.6,6.2Zm13.7-7.9-3.5-6.2,3.5-6.1h7.1l3.6,6.1-3.6,6.2Zm0-15.8-3.5-6.2,3.5-6.1h7.1l3.6,6.1-3.6,6.2Zm0-15.8-3.5-6.2,3.5-6.1h7.1l3.6,6.1-3.6,6.2Zm0-15.8-3.5-6.1,3.5-6.2h7.1l3.6,6.2-3.6,6.1Zm0-15.8-3.5-6.1,3.5-6.2h7.1l3.6,6.2-3.6,6.1Zm0-15.8-3.5-6.1,3.5-6.2h7.1l3.6,6.2-3.6,6.1Zm0-31.6-3.5-6.1,3.5-6.2h7.1l3.6,6.2-3.6,6.1Zm0-47.3-3.5-6.2,3.5-6.1h7.1l3.6,6.1-3.6,6.2Zm0,173.7-3.5-6.2,3.5-6.1h7.1l3.6,6.1-3.6,6.2Zm-27.3-31.6-3.5-6.2,3.5-6.1h7.1l3.6,6.1-3.6,6.2Zm0-15.8-3.5-6.2,3.5-6.1h7.1l3.6,6.1-3.6,6.2Zm0-189.5-3.5-6.1,3.5-6.2h7.1l3.6,6.2-3.6,6.1Zm0-15.8-3.5-6.1,3.5-6.2h7.1l3.6,6.2-3.6,6.1Zm0-94.7-3.5-6.2,3.5-6.1h7.1l3.6,6.1-3.6,6.2ZM495.6,130.7l-3.6-6.1,3.6-6.2h7.1l3.5,6.2-3.5,6.1Zm0-47.4L492,77.2l3.6-6.2h7.1l3.5,6.2-3.5,6.1Zm0-15.7L492,61.4l3.6-6.2h7.1l3.5,6.2-3.5,6.2Zm0-15.8L492,45.6l3.6-6.1h7.1l3.5,6.1-3.5,6.2Zm0-15.8L492,29.8l3.6-6.1h7.1l3.5,6.1L502.7,36Zm-27.4,78.9-3.5-6.1,3.5-6.2h7.1l3.6,6.2-3.6,6.1Zm0-15.8L464.7,93l3.5-6.2h7.1l3.6,6.2-3.6,6.1Zm0-15.8-3.5-6.1,3.5-6.2h7.1l3.6,6.2-3.6,6.1Zm0-15.7-3.5-6.2,3.5-6.2h7.1l3.6,6.2-3.6,6.2Zm0-15.8-3.5-6.2,3.5-6.1h7.1l3.6,6.1-3.6,6.2Zm0-15.8-3.5-6.2,3.5-6.1h7.1l3.6,6.1L475.3,36Zm0-15.8L464.7,14l3.5-6.1h7.1l3.6,6.1-3.6,6.2ZM440.9,430.7l-3.6-6.1,3.6-6.2H448l3.5,6.2-3.5,6.1Zm0-300-3.6-6.1,3.6-6.2H448l3.5,6.2-3.5,6.1Zm0-15.8-3.6-6.1,3.6-6.2H448l3.5,6.2-3.5,6.1Zm0-15.8L437.3,93l3.6-6.2H448l3.5,6.2L448,99.1Zm0-15.8-3.6-6.1,3.6-6.2H448l3.5,6.2L448,83.3Zm0-15.7-3.6-6.2,3.6-6.2H448l3.5,6.2L448,67.6Zm0-15.8-3.6-6.2,3.6-6.1H448l3.5,6.1L448,51.8Zm0-15.8-3.6-6.2,3.6-6.1H448l3.5,6.1L448,36Zm0-15.8L437.3,14l3.6-6.1H448l3.5,6.1L448,20.2ZM482,107l-3.6-6.1,3.6-6.2h7.1l3.5,6.2-3.5,6.1Zm0-15.8-3.6-6.1,3.6-6.2h7.1l3.5,6.2-3.5,6.1Zm0-15.8-3.6-6.1,3.6-6.2h7.1l3.5,6.2-3.5,6.1Zm0-15.7-3.6-6.2,3.6-6.1h7.1l3.5,6.1-3.5,6.2Zm0-15.8-3.6-6.2,3.6-6.1h7.1l3.5,6.1-3.5,6.2Zm0-15.8-3.6-6.2,3.6-6.1h7.1l3.5,6.1-3.5,6.2Zm0-15.8-3.6-6.1L482,0h7.1l3.5,6.2-3.5,6.1ZM454.6,122.8l-3.5-6.1,3.5-6.2h7.1l3.6,6.2-3.6,6.1Zm0-15.8-3.5-6.1,3.5-6.2h7.1l3.6,6.2-3.6,6.1Zm0-15.8-3.5-6.1,3.5-6.2h7.1l3.6,6.2-3.6,6.1Zm0-15.8-3.5-6.1,3.5-6.2h7.1l3.6,6.2-3.6,6.1Zm0-15.7-3.5-6.2,3.5-6.1h7.1l3.6,6.1-3.6,6.2Zm0-15.8-3.5-6.2,3.5-6.1h7.1l3.6,6.1-3.6,6.2Zm0-15.8-3.5-6.2,3.5-6.1h7.1l3.6,6.1-3.6,6.2Zm0-15.8-3.5-6.1L454.6,0h7.1l3.6,6.2-3.6,6.1Zm-41,465.8L410,472l3.6-6.2h7.1l3.6,6.2-3.6,6.1Zm0-15.8-3.6-6.1,3.6-6.2h7.1l3.6,6.2-3.6,6.1Zm0-15.8-3.6-6.1,3.6-6.2h7.1l3.6,6.2-3.6,6.1Zm0-15.8-3.6-6.1,3.6-6.2h7.1l3.6,6.2-3.6,6.1Zm0-15.8-3.6-6.1,3.6-6.2h7.1l3.6,6.2-3.6,6.1Zm0-268.4-3.6-6.1,3.6-6.2h7.1l3.6,6.2-3.6,6.1Zm0-15.8-3.6-6.1,3.6-6.2h7.1l3.6,6.2-3.6,6.1Zm0-15.8-3.6-6.1,3.6-6.2h7.1l3.6,6.2-3.6,6.1Zm0-15.8L410,93l3.6-6.2h7.1l3.6,6.2-3.6,6.1Zm0-15.8L410,77.2l3.6-6.2h7.1l3.6,6.2-3.6,6.1Zm0-15.7L410,61.4l3.6-6.2h7.1l3.6,6.2-3.6,6.2Zm0-15.8L410,45.6l3.6-6.1h7.1l3.6,6.1-3.6,6.2Zm0-15.8L410,29.8l3.6-6.1h7.1l3.6,6.1L420.7,36Zm0-15.8L410,14l3.6-6.1h7.1l3.6,6.1-3.6,6.2Zm13.7,450-3.6-6.1,3.6-6.2h7.1l3.5,6.2-3.5,6.1Zm0-15.8-3.6-6.1,3.6-6.2h7.1l3.5,6.2-3.5,6.1Zm0-15.8-3.6-6.1,3.6-6.2h7.1l3.5,6.2-3.5,6.1Zm0-15.8-3.6-6.1,3.6-6.2h7.1l3.5,6.2-3.5,6.1Zm0-284.2-3.6-6.1,3.6-6.2h7.1l3.5,6.2-3.5,6.1Zm0-15.8-3.6-6.1,3.6-6.2h7.1l3.5,6.2-3.5,6.1Zm0-15.8-3.6-6.1,3.6-6.2h7.1l3.5,6.2-3.5,6.1Zm0-15.8-3.6-6.1,3.6-6.2h7.1l3.5,6.2-3.5,6.1Zm0-15.8-3.6-6.1,3.6-6.2h7.1l3.5,6.2-3.5,6.1Zm0-15.7-3.6-6.2,3.6-6.1h7.1l3.5,6.1-3.5,6.2Zm0-15.8-3.6-6.2,3.6-6.1h7.1l3.5,6.1-3.5,6.2Zm0-15.8-3.6-6.2,3.6-6.1h7.1l3.5,6.1-3.5,6.2Zm0-15.8-3.6-6.1L427.3,0h7.1l3.5,6.2-3.5,6.1ZM400,486l-3.6-6.1,3.6-6.2h7.1l3.6,6.2-3.6,6.1Zm0-15.8-3.6-6.1,3.6-6.2h7.1l3.6,6.2-3.6,6.1Zm0-15.8-3.6-6.1,3.6-6.2h7.1l3.6,6.2-3.6,6.1Zm0-15.8-3.6-6.1,3.6-6.2h7.1l3.6,6.2-3.6,6.1Zm0-15.8-3.6-6.1,3.6-6.2h7.1l3.6,6.2-3.6,6.1Zm0-15.7-3.6-6.2,3.6-6.2h7.1l3.6,6.2-3.6,6.2Zm0-268.5-3.6-6.1,3.6-6.2h7.1l3.6,6.2-3.6,6.1Zm0-15.8-3.6-6.1,3.6-6.2h7.1l3.6,6.2-3.6,6.1Zm0-15.8-3.6-6.1,3.6-6.2h7.1l3.6,6.2-3.6,6.1Zm0-15.8-3.6-6.1,3.6-6.2h7.1l3.6,6.2-3.6,6.1Zm0-15.8-3.6-6.1,3.6-6.2h7.1l3.6,6.2-3.6,6.1Zm0-15.7-3.6-6.2,3.6-6.1h7.1l3.6,6.1-3.6,6.2Zm0-15.8-3.6-6.2,3.6-6.1h7.1l3.6,6.1-3.6,6.2Zm0-15.8-3.6-6.2,3.6-6.1h7.1l3.6,6.1-3.6,6.2ZM386.2,509.7l-3.5-6.2,3.5-6.1h7.2l3.5,6.1-3.5,6.2Zm0-15.8-3.5-6.2,3.5-6.1h7.2l3.5,6.1-3.5,6.2Zm0-15.8-3.5-6.1,3.5-6.2h7.2l3.5,6.2-3.5,6.1Zm0-15.8-3.5-6.1,3.5-6.2h7.2l3.5,6.2-3.5,6.1Zm0-15.8-3.5-6.1,3.5-6.2h7.2l3.5,6.2-3.5,6.1Zm0-15.8-3.5-6.1,3.5-6.2h7.2l3.5,6.2-3.5,6.1Zm0-15.8-3.5-6.1,3.5-6.2h7.2l3.5,6.2-3.5,6.1Zm0-15.7-3.5-6.2,3.5-6.1h7.2l3.5,6.1-3.5,6.2Zm0-15.8-3.5-6.2,3.5-6.1h7.2l3.5,6.1-3.5,6.2Zm0-252.7-3.5-6.1,3.5-6.2h7.2l3.5,6.2-3.5,6.1Zm0-15.8-3.5-6.1,3.5-6.2h7.2l3.5,6.2-3.5,6.1Zm0-15.8L382.7,93l3.5-6.2h7.2l3.5,6.2-3.5,6.1Zm0-15.8-3.5-6.1,3.5-6.2h7.2l3.5,6.2-3.5,6.1Zm0-15.7-3.5-6.2,3.5-6.2h7.2l3.5,6.2-3.5,6.2Zm0-15.8-3.5-6.2,3.5-6.1h7.2l3.5,6.1-3.5,6.2Zm0-15.8-3.5-6.2,3.5-6.1h7.2l3.5,6.1L393.4,36Zm0-15.8L382.7,14l3.5-6.1h7.2l3.5,6.1-3.5,6.2ZM358.9,588.6l-3.6-6.1,3.6-6.2H366l3.6,6.2-3.6,6.1Zm0-63.1-3.6-6.2,3.6-6.1H366l3.6,6.1-3.6,6.2Zm0-15.8-3.6-6.2,3.6-6.1H366l3.6,6.1-3.6,6.2Zm0-15.8-3.6-6.2,3.6-6.1H366l3.6,6.1-3.6,6.2Zm0-15.8-3.6-6.1,3.6-6.2H366l3.6,6.2-3.6,6.1Zm0-15.8-3.6-6.1,3.6-6.2H366l3.6,6.2-3.6,6.1Zm0-15.8-3.6-6.1,3.6-6.2H366l3.6,6.2-3.6,6.1Zm0-15.8-3.6-6.1,3.6-6.2H366l3.6,6.2-3.6,6.1Zm0-15.8-3.6-6.1,3.6-6.2H366l3.6,6.2-3.6,6.1Zm0-15.7-3.6-6.2,3.6-6.1H366l3.6,6.1-3.6,6.2Zm0-15.8-3.6-6.2,3.6-6.1H366l3.6,6.1-3.6,6.2Zm0-189.5-3.6-6.2,3.6-6.1H366l3.6,6.1-3.6,6.2Zm0-126.3-3.6-6.2,3.6-6.2H366l3.6,6.2L366,67.6Zm0-15.8-3.6-6.2,3.6-6.1H366l3.6,6.1L366,51.8Zm0-15.8-3.6-6.2,3.6-6.1H366l3.6,6.1L366,36Zm0,331.6-3.6-6.2,3.6-6.1H366l3.6,6.1-3.6,6.2Zm13.7,150-3.5-6.2,3.5-6.1h7.1l3.6,6.1-3.6,6.2Zm0-15.8-3.5-6.2,3.5-6.1h7.1l3.6,6.1-3.6,6.2Zm0-15.8-3.5-6.1,3.5-6.2h7.1l3.6,6.2-3.6,6.1Zm0-15.8-3.5-6.1,3.5-6.2h7.1l3.6,6.2-3.6,6.1Zm0-15.8-3.5-6.1,3.5-6.2h7.1l3.6,6.2-3.6,6.1Zm0-15.8-3.5-6.1,3.5-6.2h7.1l3.6,6.2-3.6,6.1Zm0-15.8-3.5-6.1,3.5-6.2h7.1l3.6,6.2-3.6,6.1Zm0-15.7-3.5-6.2,3.5-6.2h7.1l3.6,6.2-3.6,6.2Zm0-15.8-3.5-6.2,3.5-6.1h7.1l3.6,6.1-3.6,6.2Zm0-173.7-3.5-6.2,3.5-6.1h7.1l3.6,6.1-3.6,6.2Zm0-15.8-3.5-6.2,3.5-6.1h7.1l3.6,6.1-3.6,6.2Zm0-126.4-3.5-6.1,3.5-6.2h7.1l3.6,6.2-3.6,6.1Zm0-15.7-3.5-6.2,3.5-6.1h7.1l3.6,6.1-3.6,6.2Zm0-15.8-3.5-6.2,3.5-6.1h7.1l3.6,6.1-3.6,6.2Zm0-15.8-3.5-6.2,3.5-6.1h7.1l3.6,6.1-3.6,6.2Zm0,347.4-3.5-6.2,3.5-6.1h7.1l3.6,6.1-3.6,6.2ZM345.3,549.2l-3.6-6.2,3.6-6.1h7.1L356,543l-3.6,6.2Zm0-15.8-3.6-6.2,3.6-6.1h7.1l3.6,6.1-3.6,6.2Zm0-15.8-3.6-6.2,3.6-6.1h7.1l3.6,6.1-3.6,6.2Zm0-15.8-3.6-6.2,3.6-6.1h7.1l3.6,6.1-3.6,6.2Zm0-15.8-3.6-6.1,3.6-6.2h7.1l3.6,6.2-3.6,6.1Zm0-15.8-3.6-6.1,3.6-6.2h7.1l3.6,6.2-3.6,6.1Zm0-15.8-3.6-6.1,3.6-6.2h7.1l3.6,6.2-3.6,6.1Zm0-15.8-3.6-6.1,3.6-6.2h7.1l3.6,6.2-3.6,6.1Zm0-15.8-3.6-6.1,3.6-6.2h7.1l3.6,6.2-3.6,6.1Zm0-15.7-3.6-6.2,3.6-6.2h7.1l3.6,6.2-3.6,6.2Zm0-15.8-3.6-6.2,3.6-6.1h7.1l3.6,6.1-3.6,6.2Zm0-157.9-3.6-6.2,3.6-6.2h7.1l3.6,6.2-3.6,6.2Zm0-31.6-3.6-6.2,3.6-6.1h7.1l3.6,6.1-3.6,6.2Zm0-15.8-3.6-6.2,3.6-6.1h7.1l3.6,6.1-3.6,6.2Zm0-15.8-3.6-6.2,3.6-6.1h7.1L356,164l-3.6,6.2Zm0-31.6-3.6-6.1,3.6-6.2h7.1l3.6,6.2-3.6,6.1Zm0-15.8-3.6-6.1,3.6-6.2h7.1l3.6,6.2-3.6,6.1Zm0-63.1-3.6-6.2,3.6-6.1h7.1l3.6,6.1-3.6,6.2Zm0-15.8-3.6-6.2,3.6-6.1h7.1l3.6,6.1-3.6,6.2Zm0,331.6-3.6-6.2,3.6-6.1h7.1l3.6,6.1-3.6,6.2ZM1206.3,146.5l-3.6001-6.1,3.6001-6.2h7.1l3.5,6.2-3.5,6.1Zm0-15.8-3.6001-6.1,3.6001-6.2h7.1l3.5,6.2-3.5,6.1Zm-27.4,0-3.5-6.1,3.5-6.2h7.1l3.6,6.2-3.6,6.1Zm0-15.8-3.5-6.1,3.5-6.2h7.1l3.6,6.2-3.6,6.1Zm0-15.8-3.5-6.1,3.5-6.2h7.1l3.6,6.2-3.6,6.1Zm13.7,23.7-3.6-6.1,3.6-6.2h7.1l3.6001,6.2-3.6001,6.1ZM1165.3,533.4l-3.5-6.2,3.5-6.1h7.1l3.6,6.1-3.6,6.2Zm0-394.8-3.5-6.1,3.5-6.2h7.1l3.6,6.2-3.6,6.1Zm0-15.8-3.5-6.1,3.5-6.2h7.1l3.6,6.2-3.6,6.1Zm0-15.8-3.5-6.1,3.5-6.2h7.1l3.6,6.2-3.6,6.1ZM1151.6,557.1l-3.6-6.2,3.6-6.1h7.1l3.5,6.1-3.5,6.2Zm0-15.8-3.6-6.2,3.6-6.1h7.1l3.5,6.1-3.5,6.2Zm0-15.8-3.6-6.2,3.6-6.1h7.1l3.5,6.1-3.5,6.2Zm0-379-3.6-6.1,3.6-6.2h7.1l3.5,6.2-3.5,6.1Zm0-15.8-3.6-6.1,3.6-6.2h7.1l3.5,6.2-3.5,6.1Zm0-15.8-3.6-6.1,3.6-6.2h7.1l3.5,6.2-3.5,6.1Zm-27.4,47.4-3.5-6.2,3.5-6.1H1131.3l3.6,6.1-3.6,6.2Zm0-15.8-3.5-6.1,3.5-6.2H1131.3l3.6,6.2-3.6,6.1Zm0-15.8-3.5-6.1,3.5-6.2H1131.3l3.6,6.2-3.6,6.1Zm0-15.8-3.5-6.1,3.5-6.2H1131.3l3.6,6.2-3.6,6.1ZM1096.9,414.9l-3.6-6.1,3.6-6.2h7.1l3.5,6.2-3.5,6.1Zm0-221-3.6-6.2,3.6-6.1h7.1l3.5,6.1-3.5,6.2Zm0-15.8-3.6-6.2,3.6-6.1h7.1l3.5,6.1-3.5,6.2Zm0-31.6-3.6-6.1,3.6-6.2h7.1l3.5,6.2-3.5,6.1Zm0-15.8-3.6-6.1,3.6-6.2h7.1l3.5,6.2-3.5,6.1Zm0-15.8-3.6-6.1,3.6-6.2h7.1l3.5,6.2-3.5,6.1Zm0-15.8-3.6-6.1,3.6-6.2h7.1l3.5,6.2-3.5,6.1ZM1138,565l-3.6-6.2,3.6-6.1h7.1l3.5,6.1-3.5,6.2Zm0-410.6-3.6-6.2,3.6-6.1h7.1l3.5,6.1-3.5,6.2Zm0-15.8-3.6-6.1,3.6-6.2h7.1l3.5,6.2-3.5,6.1Zm0-15.8-3.6-6.1,3.6-6.2h7.1l3.5,6.2-3.5,6.1Zm0-15.8-3.6-6.1,3.6-6.2h7.1l3.5,6.2-3.5,6.1Zm-27.4,79-3.5-6.2,3.5-6.1h7.1l3.6001,6.1L1117.7,186Zm0-15.8-3.5-6.2,3.5-6.1h7.1L1121.3,164l-3.6001,6.2Zm0-15.8-3.5-6.2,3.5-6.1h7.1l3.6001,6.1-3.6001,6.2Zm0-15.8-3.5-6.1,3.5-6.2h7.1l3.6001,6.2-3.6001,6.1Zm0-15.8-3.5-6.1,3.5-6.2h7.1l3.6001,6.2-3.6001,6.1Zm0-15.8-3.5-6.1,3.5-6.2h7.1l3.6001,6.2L1117.7,107Zm-41,418.5-3.6-6.2,3.6-6.1h7.1l3.5,6.1-3.5,6.2Zm0-15.8-3.6-6.2,3.6-6.1h7.1l3.5,6.1-3.5,6.2Zm0-15.8-3.6-6.2,3.6-6.1h7.1l3.5,6.1-3.5,6.2Zm0-15.8L1066,472l3.6-6.2h7.1l3.5,6.2-3.5,6.1Zm0-47.4-3.6-6.1,3.6-6.2h7.1l3.5,6.2-3.5,6.1Zm0-268.4-3.6-6.2,3.6-6.1h7.1l3.5,6.1-3.5,6.2Zm0-15.8-3.6-6.1,3.6-6.2h7.1l3.5,6.2-3.5,6.1Zm0-15.8-3.6-6.1,3.6-6.2h7.1l3.5,6.2-3.5,6.1Zm0-15.8-3.6-6.1,3.6-6.2h7.1l3.5,6.2-3.5,6.1Zm0-15.8L1066,93l3.6-6.2h7.1l3.5,6.2-3.5,6.1ZM1083.3,501.8l-3.6001-6.2,3.6001-6.1h7.1l3.5,6.1-3.5,6.2Zm0-15.8-3.6001-6.1,3.6001-6.2h7.1l3.5,6.2-3.5,6.1Zm0-78.9-3.6001-6.2,3.6001-6.2h7.1l3.5,6.2-3.5,6.2Zm0-252.7-3.6001-6.2,3.6001-6.1h7.1l3.5,6.1-3.5,6.2Zm0-15.8-3.6001-6.1,3.6001-6.2h7.1l3.5,6.2-3.5,6.1Zm0-15.8-3.6001-6.1,3.6001-6.2h7.1l3.5,6.2-3.5,6.1Zm0-15.8-3.6001-6.1,3.6001-6.2h7.1l3.5,6.2-3.5,6.1ZM1056,549.2l-3.6-6.2,3.6-6.1h7.1l3.5,6.1-3.5,6.2Zm0-15.8-3.6-6.2,3.6-6.1h7.1l3.5,6.1-3.5,6.2Zm0-15.8-3.6-6.2,3.6-6.1h7.1l3.5,6.1-3.5,6.2Zm0-15.8-3.6-6.2,3.6-6.1h7.1l3.5,6.1-3.5,6.2Zm0-15.8-3.6-6.1,3.6-6.2h7.1l3.5,6.2-3.5,6.1Zm0-15.8-3.6-6.1,3.6-6.2h7.1l3.5,6.2-3.5,6.1Zm0-15.8-3.6-6.1,3.6-6.2h7.1l3.5,6.2-3.5,6.1Zm0-31.6-3.6-6.1,3.6-6.2h7.1l3.5,6.2-3.5,6.1Zm0-189.4-3.6-6.2,3.6-6.2h7.1l3.5,6.2-3.5,6.2Zm0-31.6-3.6-6.2,3.6-6.1h7.1l3.5,6.1-3.5,6.2Zm0-47.4-3.6-6.2,3.6-6.1h7.1l3.5,6.1-3.5,6.2Zm0-15.8-3.6-6.1,3.6-6.2h7.1l3.5,6.2-3.5,6.1Zm0-15.8-3.6-6.1,3.6-6.2h7.1l3.5,6.2-3.5,6.1Zm0-15.8-3.6-6.1,3.6-6.2h7.1l3.5,6.2-3.5,6.1Zm0-15.8-3.6-6.1,3.6-6.2h7.1l3.5,6.2-3.5,6.1Zm0-15.8-3.6-6.1,3.6-6.2h7.1l3.5,6.2-3.5,6.1Zm-13.8,450.1-3.5-6.2,3.5-6.1H1049.3l3.6,6.1-3.6,6.2Zm0-15.8-3.5-6.2,3.5-6.1H1049.3l3.6,6.1-3.6,6.2Zm0-15.8-3.5-6.2,3.5-6.1H1049.3l3.6,6.1-3.6,6.2Zm0-15.8-3.5-6.1,3.5-6.2H1049.3l3.6,6.2-3.6,6.1Zm0-15.8-3.5-6.1,3.5-6.2H1049.3l3.6,6.2-3.6,6.1Zm0-31.6-3.5-6.1,3.5-6.2H1049.3l3.6,6.2-3.6,6.1Zm0-15.8-3.5-6.1,3.5-6.2H1049.3l3.6,6.2-3.6,6.1Zm0-142.1-3.5-6.1,3.5-6.2H1049.3l3.6,6.2-3.6,6.1Zm0-15.8-3.5-6.1,3.5-6.2H1049.3l3.6,6.2-3.6,6.1Zm0-15.8-3.5-6.1,3.5-6.2H1049.3l3.6,6.2-3.6,6.1Zm0-78.9-3.5-6.2,3.5-6.1H1049.3l3.6,6.1-3.6,6.2Zm0-15.8-3.5-6.1,3.5-6.2H1049.3l3.6,6.2-3.6,6.1Zm0-15.8-3.5-6.1,3.5-6.2H1049.3l3.6,6.2-3.6,6.1Zm0-15.8-3.5-6.1,3.5-6.2H1049.3l3.6,6.2-3.6,6.1Zm0-15.8-3.5-6.1,3.5-6.2H1049.3l3.6,6.2-3.6,6.1Zm0-31.5-3.5-6.2,3.5-6.2H1049.3l3.6,6.2-3.6,6.2ZM1014.9,509.7l-3.6-6.2,3.6-6.1h7.1l3.5,6.1-3.5,6.2Zm0-15.8-3.6-6.2,3.6-6.1h7.1l3.5,6.1-3.5,6.2Zm0-15.8-3.6-6.1,3.6-6.2h7.1l3.5,6.2-3.5,6.1Zm0-15.8-3.6-6.1,3.6-6.2h7.1l3.5,6.2-3.5,6.1Zm0-15.8-3.6-6.1,3.6-6.2h7.1l3.5,6.2-3.5,6.1Zm0-47.3-3.6-6.2,3.6-6.1h7.1l3.5,6.1-3.5,6.2Zm0-110.6-3.6-6.1,3.6-6.2h7.1l3.5,6.2-3.5,6.1Zm0-15.8-3.6-6.1,3.6-6.2h7.1l3.5,6.2-3.5,6.1Zm0-31.6-3.6-6.1,3.6-6.2h7.1l3.5,6.2-3.5,6.1Zm0-15.7-3.6-6.2,3.6-6.1h7.1l3.5,6.1-3.5,6.2Zm0-15.8-3.6-6.2,3.6-6.1h7.1l3.5,6.1-3.5,6.2Zm0-15.8-3.6-6.2,3.6-6.1h7.1l3.5,6.1-3.5,6.2Zm0-15.8-3.6-6.2,3.6-6.1h7.1l3.5,6.1-3.5,6.2Zm0-15.8-3.6-6.2,3.6-6.1h7.1l3.5,6.1-3.5,6.2Zm0-15.8-3.6-6.1,3.6-6.2h7.1l3.5,6.2-3.5,6.1Zm0-15.8-3.6-6.1,3.6-6.2h7.1l3.5,6.2-3.5,6.1Zm0-15.8-3.6-6.1,3.6-6.2h7.1l3.5,6.2-3.5,6.1Zm0-15.8-3.6-6.1,3.6-6.2h7.1l3.5,6.2-3.5,6.1ZM987.5,509.7l-3.5-6.2,3.5-6.1h7.1l3.6,6.1-3.6,6.2Zm0-15.8-3.5-6.2,3.5-6.1h7.1l3.6,6.1-3.6,6.2Zm0-15.8L984,472l3.5-6.2h7.1l3.6,6.2-3.6,6.1Zm0-15.8-3.5-6.1,3.5-6.2h7.1l3.6,6.2-3.6,6.1Zm0-31.6-3.5-6.1,3.5-6.2h7.1l3.6,6.2-3.6,6.1Zm0-78.9-3.5-6.2,3.5-6.1h7.1l3.6,6.1-3.6,6.2Zm0-94.8-3.5-6.1,3.5-6.2h7.1l3.6,6.2-3.6,6.1Zm0-15.8-3.5-6.1,3.5-6.2h7.1l3.6,6.2-3.6,6.1Zm0-15.7-3.5-6.2,3.5-6.1h7.1l3.6,6.1-3.6,6.2Zm0-15.8-3.5-6.2,3.5-6.1h7.1l3.6,6.1-3.6,6.2Zm0-15.8-3.5-6.2,3.5-6.1h7.1l3.6,6.1-3.6,6.2Zm0-15.8-3.5-6.2,3.5-6.1h7.1l3.6,6.1-3.6,6.2Zm0-15.8-3.5-6.2,3.5-6.1h7.1l3.6,6.1-3.6,6.2Zm0-15.8-3.5-6.1,3.5-6.2h7.1l3.6,6.2-3.6,6.1Zm0-15.8-3.5-6.1,3.5-6.2h7.1l3.6,6.2-3.6,6.1Zm0-15.8-3.5-6.1,3.5-6.2h7.1l3.6,6.2-3.6,6.1Zm0-15.8L984,93l3.5-6.2h7.1l3.6,6.2-3.6,6.1Zm0-15.8L984,77.2l3.5-6.2h7.1l3.6,6.2-3.6,6.1Zm0,284.3-3.5-6.2,3.5-6.1h7.1l3.6,6.1-3.6,6.2Zm41.1,150-3.5-6.2,3.5-6.1h7.1l3.6001,6.1-3.6001,6.2Zm0-15.8-3.5-6.2,3.5-6.1h7.1l3.6001,6.1-3.6001,6.2Zm0-15.8-3.5-6.1,3.5-6.2h7.1l3.6001,6.2L1035.7,486Zm0-15.8-3.5-6.1,3.5-6.2h7.1l3.6001,6.2-3.6001,6.1Zm0-15.8-3.5-6.1,3.5-6.2h7.1l3.6001,6.2-3.6001,6.1Zm0-47.3-3.5-6.2,3.5-6.2h7.1l3.6001,6.2-3.6001,6.2Zm0-126.4-3.5-6.1,3.5-6.2h7.1l3.6001,6.2-3.6001,6.1Zm0-15.8-3.5-6.1,3.5-6.2h7.1l3.6001,6.2-3.6001,6.1Zm0-47.3-3.5-6.2,3.5-6.1h7.1l3.6001,6.1-3.6001,6.2Zm0-15.8-3.5-6.2,3.5-6.1h7.1l3.6001,6.1-3.6001,6.2Zm0-15.8-3.5-6.2,3.5-6.1h7.1l3.6001,6.1L1035.7,186Zm0-15.8-3.5-6.2,3.5-6.1h7.1L1039.3,164l-3.6001,6.2Zm0-15.8-3.5-6.2,3.5-6.1h7.1l3.6001,6.1-3.6001,6.2Zm0-15.8-3.5-6.1,3.5-6.2h7.1l3.6001,6.2-3.6001,6.1Zm0-15.8-3.5-6.1,3.5-6.2h7.1l3.6001,6.2-3.6001,6.1Zm0-15.8-3.5-6.1,3.5-6.2h7.1l3.6001,6.2L1035.7,107Zm-27.3,394.8-3.6-6.2,3.6-6.1h7.1l3.5,6.1-3.5,6.2Zm0-15.8-3.6-6.1,3.6-6.2h7.1l3.5,6.2-3.5,6.1Zm0-15.8-3.6-6.1,3.6-6.2h7.1l3.5,6.2-3.5,6.1Zm0-15.8-3.6-6.1,3.6-6.2h7.1l3.5,6.2-3.5,6.1Zm0-47.3-3.6-6.2,3.6-6.2h7.1l3.5,6.2-3.5,6.2Zm0-142.2-3.6-6.1,3.6-6.2h7.1l3.5,6.2-3.5,6.1Zm0-15.8-3.6-6.1,3.6-6.2h7.1l3.5,6.2-3.5,6.1Zm0-15.7-3.6-6.2,3.6-6.2h7.1l3.5,6.2-3.5,6.2Zm0-15.8-3.6-6.2,3.6-6.1h7.1l3.5,6.1-3.5,6.2Zm0-15.8-3.6-6.2,3.6-6.1h7.1l3.5,6.1-3.5,6.2Zm0-15.8-3.6-6.2,3.6-6.1h7.1l3.5,6.1-3.5,6.2Zm0-15.8-3.6-6.2,3.6-6.1h7.1l3.5,6.1-3.5,6.2Zm0-15.8-3.6-6.2,3.6-6.1h7.1l3.5,6.1-3.5,6.2Zm0-15.8-3.6-6.1,3.6-6.2h7.1l3.5,6.2-3.5,6.1Zm0-15.8-3.6-6.1,3.6-6.2h7.1l3.5,6.2-3.5,6.1Zm0-15.8-3.6-6.1,3.6-6.2h7.1l3.5,6.2-3.5,6.1Zm0-15.8-3.6-6.1,3.6-6.2h7.1l3.5,6.2-3.5,6.1Zm-41,418.5-3.6-6.2,3.6-6.1h7.1l3.5,6.1-3.5,6.2Zm0-15.8-3.6-6.2,3.6-6.1h7.1l3.5,6.1-3.5,6.2Zm0-15.8-3.6-6.1,3.6-6.2h7.1l3.5,6.2-3.5,6.1Zm0-47.4-3.6-6.1,3.6-6.2h7.1l3.5,6.2-3.5,6.1Zm0-31.5-3.6-6.2,3.6-6.1h7.1l3.5,6.1-3.5,6.2Zm0-15.8-3.6-6.2,3.6-6.1h7.1l3.5,6.1-3.5,6.2Zm0-79-3.6-6.1,3.6-6.2h7.1l3.5,6.2-3.5,6.1Zm0-15.8-3.6-6.1,3.6-6.2h7.1l3.5,6.2-3.5,6.1Zm0-15.8-3.6-6.1,3.6-6.2h7.1l3.5,6.2-3.5,6.1Zm0-15.8-3.6-6.1,3.6-6.2h7.1l3.5,6.2-3.5,6.1Zm0-15.8-3.6-6.1,3.6-6.2h7.1l3.5,6.2-3.5,6.1Zm0-15.7-3.6-6.2,3.6-6.1h7.1l3.5,6.1-3.5,6.2Zm0-15.8-3.6-6.2,3.6-6.1h7.1l3.5,6.1-3.5,6.2Zm0-15.8-3.6-6.2,3.6-6.1h7.1l3.5,6.1-3.5,6.2Zm0-15.8-3.6-6.2,3.6-6.1h7.1l3.5,6.1-3.5,6.2Zm0-15.8-3.6-6.2,3.6-6.1h7.1l3.5,6.1-3.5,6.2Zm0-15.8-3.6-6.1,3.6-6.2h7.1l3.5,6.2-3.5,6.1Zm0-15.8-3.6-6.1,3.6-6.2h7.1l3.5,6.2-3.5,6.1Zm0-15.8-3.6-6.1,3.6-6.2h7.1l3.5,6.2-3.5,6.1Zm0-15.8L956.7,93l3.6-6.2h7.1l3.5,6.2-3.5,6.1Zm0-15.8-3.6-6.1,3.6-6.2h7.1l3.5,6.2-3.5,6.1Zm13.6,434.3-3.5-6.2,3.5-6.1H981l3.6,6.1-3.6,6.2Zm0-15.8-3.5-6.2,3.5-6.1H981l3.6,6.1-3.6,6.2Zm0-15.8-3.5-6.1,3.5-6.2H981l3.6,6.2L981,486Zm0-15.8-3.5-6.1,3.5-6.2H981l3.6,6.2-3.6,6.1Zm0-47.4-3.5-6.1,3.5-6.2H981l3.6,6.2-3.6,6.1Zm0-15.7-3.5-6.2,3.5-6.2H981l3.6,6.2-3.6,6.2Zm0-47.4-3.5-6.2,3.5-6.1H981l3.6,6.1-3.6,6.2Zm0-15.8-3.5-6.2,3.5-6.1H981l3.6,6.1-3.6,6.2Zm0-31.6-3.5-6.1,3.5-6.2H981l3.6,6.2-3.6,6.1Zm0-15.8-3.5-6.1,3.5-6.2H981l3.6,6.2-3.6,6.1Zm0-15.8-3.5-6.1,3.5-6.2H981l3.6,6.2-3.6,6.1Zm0-31.6-3.5-6.1,3.5-6.2H981l3.6,6.2-3.6,6.1Zm0-15.7-3.5-6.2,3.5-6.2H981l3.6,6.2-3.6,6.2Zm0-15.8-3.5-6.2,3.5-6.1H981l3.6,6.1-3.6,6.2Zm0-15.8-3.5-6.2,3.5-6.1H981l3.6,6.1-3.6,6.2Zm0-15.8-3.5-6.2,3.5-6.1H981l3.6,6.1L981,186Zm0-15.8-3.5-6.2,3.5-6.1H981l3.6,6.1-3.6,6.2Zm0-15.8-3.5-6.2,3.5-6.1H981l3.6,6.1-3.6,6.2Zm0-15.8-3.5-6.1,3.5-6.2H981l3.6,6.2-3.6,6.1Zm0-15.8-3.5-6.1,3.5-6.2H981l3.6,6.2-3.6,6.1Zm0-15.8-3.5-6.1,3.5-6.2H981l3.6,6.2L981,107Zm0-15.8-3.5-6.1,3.5-6.2H981l3.6,6.2L981,91.2ZM946.7,422.8l-3.6-6.1,3.6-6.2h7.1l3.5,6.2-3.5,6.1Zm0-15.7-3.6-6.2,3.6-6.2h7.1l3.5,6.2-3.5,6.2Zm0-15.8-3.6-6.2,3.6-6.1h7.1l3.5,6.1-3.5,6.2Zm0-79-3.6-6.1,3.6-6.2h7.1l3.5,6.2-3.5,6.1Zm0-15.8-3.6-6.1,3.6-6.2h7.1l3.5,6.2-3.5,6.1Zm0-15.8-3.6-6.1,3.6-6.2h7.1l3.5,6.2-3.5,6.1Zm0-15.8-3.6-6.1,3.6-6.2h7.1l3.5,6.2-3.5,6.1Zm0-15.8-3.6-6.1,3.6-6.2h7.1l3.5,6.2-3.5,6.1Zm0-15.7-3.6-6.2,3.6-6.2h7.1l3.5,6.2-3.5,6.2Zm0-15.8-3.6-6.2,3.6-6.1h7.1l3.5,6.1-3.5,6.2Zm0-15.8-3.6-6.2,3.6-6.1h7.1l3.5,6.1-3.5,6.2Zm0-31.6-3.6-6.2,3.6-6.1h7.1l3.5,6.1-3.5,6.2Zm0-15.8-3.6-6.2,3.6-6.1h7.1l3.5,6.1-3.5,6.2Zm0-15.8-3.6-6.1,3.6-6.2h7.1l3.5,6.2-3.5,6.1Zm0-15.8-3.6-6.1,3.6-6.2h7.1l3.5,6.2-3.5,6.1Zm0-15.8-3.6-6.1,3.6-6.2h7.1l3.5,6.2-3.5,6.1Zm0-15.8-3.6-6.1,3.6-6.2h7.1l3.5,6.2-3.5,6.1ZM932.9,414.9l-3.5-6.1,3.5-6.2H940l3.6,6.2-3.6,6.1Zm0-63.1-3.5-6.2,3.5-6.1H940l3.6,6.1-3.6,6.2Zm0-31.6-3.5-6.2,3.5-6.1H940l3.6,6.1-3.6,6.2Zm0-15.8-3.5-6.1,3.5-6.2H940l3.6,6.2-3.6,6.1Zm0-15.8-3.5-6.1,3.5-6.2H940l3.6,6.2-3.6,6.1Zm0-15.8-3.5-6.1,3.5-6.2H940l3.6,6.2-3.6,6.1Zm0-15.8-3.5-6.1,3.5-6.2H940l3.6,6.2L940,257Zm0-15.8-3.5-6.1,3.5-6.2H940l3.6,6.2-3.6,6.1Zm0-15.7-3.5-6.2,3.5-6.1H940l3.6,6.1-3.6,6.2Zm0-15.8-3.5-6.2,3.5-6.1H940l3.6,6.1-3.6,6.2Zm0-15.8-3.5-6.2,3.5-6.1H940l3.6,6.1-3.6,6.2Zm0-15.8-3.5-6.2,3.5-6.1H940l3.6,6.1-3.6,6.2Zm0-15.8-3.5-6.2,3.5-6.1H940l3.6,6.1-3.6,6.2Zm0-15.8-3.5-6.1,3.5-6.2H940l3.6,6.2-3.6,6.1Zm0-15.8-3.5-6.1,3.5-6.2H940l3.6,6.2-3.6,6.1Zm0-15.8-3.5-6.1,3.5-6.2H940l3.6,6.2-3.6,6.1Zm0-15.8L929.4,93l3.5-6.2H940l3.6,6.2L940,99.1Zm0-15.8-3.5-6.1,3.5-6.2H940l3.6,6.2L940,83.3Zm0-15.7-3.5-6.2,3.5-6.2H940l3.6,6.2L940,67.6ZM905.6,399.2,902,393l3.6-6.1h7.1l3.5,6.1-3.5,6.2Zm0-15.8-3.6-6.2,3.6-6.1h7.1l3.5,6.1-3.5,6.2Zm0-31.6-3.6-6.2,3.6-6.1h7.1l3.5,6.1-3.5,6.2Zm0-15.8-3.6-6.2,3.6-6.1h7.1l3.5,6.1-3.5,6.2Zm0-15.8L902,314l3.6-6.1h7.1l3.5,6.1-3.5,6.2Zm0-15.8-3.6-6.1,3.6-6.2h7.1l3.5,6.2-3.5,6.1Zm0-15.8-3.6-6.1,3.6-6.2h7.1l3.5,6.2-3.5,6.1Zm0-15.8-3.6-6.1,3.6-6.2h7.1l3.5,6.2-3.5,6.1Zm0-15.8-3.6-6.1,3.6-6.2h7.1l3.5,6.2-3.5,6.1Zm0-15.8-3.6-6.1,3.6-6.2h7.1l3.5,6.2-3.5,6.1Zm0-15.7-3.6-6.2,3.6-6.1h7.1l3.5,6.1-3.5,6.2Zm0-15.8-3.6-6.2,3.6-6.1h7.1l3.5,6.1-3.5,6.2Zm0-15.8-3.6-6.2,3.6-6.1h7.1l3.5,6.1-3.5,6.2Zm0-15.8-3.6-6.2,3.6-6.1h7.1l3.5,6.1-3.5,6.2Zm0-15.8-3.6-6.2,3.6-6.1h7.1l3.5,6.1-3.5,6.2Zm0-15.8-3.6-6.1,3.6-6.2h7.1l3.5,6.2-3.5,6.1Zm0-15.8-3.6-6.1,3.6-6.2h7.1l3.5,6.2-3.5,6.1Zm0-15.8-3.6-6.1,3.6-6.2h7.1l3.5,6.2-3.5,6.1Zm0-15.8L902,93l3.6-6.2h7.1l3.5,6.2-3.5,6.1Zm0-15.8L902,77.2l3.6-6.2h7.1l3.5,6.2-3.5,6.1Zm0-15.7L902,61.4l3.6-6.2h7.1l3.5,6.2-3.5,6.2Zm0-31.6L902,29.8l3.6-6.1h7.1l3.5,6.1L912.7,36ZM878.2,320.2l-3.5-6.2,3.5-6.1h7.1l3.6,6.1-3.6,6.2Zm0-15.8-3.5-6.1,3.5-6.2h7.1l3.6,6.2-3.6,6.1Zm0-15.8-3.5-6.1,3.5-6.2h7.1l3.6,6.2-3.6,6.1Zm0-15.8-3.5-6.1,3.5-6.2h7.1l3.6,6.2-3.6,6.1Zm0-15.8-3.5-6.1,3.5-6.2h7.1l3.6,6.2-3.6,6.1Zm0-15.8-3.5-6.1,3.5-6.2h7.1l3.6,6.2-3.6,6.1Zm0-15.7-3.5-6.2,3.5-6.1h7.1l3.6,6.1-3.6,6.2Zm0-15.8-3.5-6.2,3.5-6.1h7.1l3.6,6.1-3.6,6.2Zm0-15.8-3.5-6.2,3.5-6.1h7.1l3.6,6.1-3.6,6.2Zm0-15.8-3.5-6.2,3.5-6.1h7.1l3.6,6.1-3.6,6.2Zm0-15.8-3.5-6.2,3.5-6.1h7.1l3.6,6.1-3.6,6.2Zm0-15.8-3.5-6.1,3.5-6.2h7.1l3.6,6.2-3.6,6.1Zm0-15.8-3.5-6.1,3.5-6.2h7.1l3.6,6.2-3.6,6.1Zm0-15.8-3.5-6.1,3.5-6.2h7.1l3.6,6.2-3.6,6.1Zm0-15.8L874.7,93l3.5-6.2h7.1l3.6,6.2-3.6,6.1Zm0-15.8-3.5-6.1,3.5-6.2h7.1l3.6,6.2-3.6,6.1Zm41.1,323.8-3.6-6.2,3.6-6.2h7.1l3.6,6.2-3.6,6.2Zm0-47.4-3.6-6.2,3.6-6.1h7.1l3.6,6.1-3.6,6.2Zm0-15.8-3.6-6.2,3.6-6.1h7.1l3.6,6.1-3.6,6.2Zm0-15.8-3.6-6.2,3.6-6.1h7.1l3.6,6.1-3.6,6.2Zm0-15.8-3.6-6.1,3.6-6.2h7.1l3.6,6.2-3.6,6.1Zm0-15.8-3.6-6.1,3.6-6.2h7.1l3.6,6.2-3.6,6.1Zm0-15.8-3.6-6.1,3.6-6.2h7.1l3.6,6.2-3.6,6.1Zm0-15.8-3.6-6.1,3.6-6.2h7.1l3.6,6.2-3.6,6.1Zm0-15.8-3.6-6.1,3.6-6.2h7.1L930,243l-3.6,6.1Zm0-15.7-3.6-6.2,3.6-6.2h7.1l3.6,6.2-3.6,6.2Zm0-15.8-3.6-6.2,3.6-6.1h7.1l3.6,6.1-3.6,6.2Zm0-15.8-3.6-6.2,3.6-6.1h7.1l3.6,6.1-3.6,6.2Zm0-15.8-3.6-6.2,3.6-6.1h7.1l3.6,6.1-3.6,6.2Zm0-15.8-3.6-6.2,3.6-6.1h7.1L930,164l-3.6,6.2Zm0-15.8-3.6-6.2,3.6-6.1h7.1l3.6,6.1-3.6,6.2Zm0-15.8-3.6-6.1,3.6-6.2h7.1l3.6,6.2-3.6,6.1Zm0-15.8-3.6-6.1,3.6-6.2h7.1l3.6,6.2-3.6,6.1Zm0-15.8-3.6-6.1,3.6-6.2h7.1l3.6,6.2-3.6,6.1Zm0-15.8-3.6-6.1,3.6-6.2h7.1l3.6,6.2-3.6,6.1Zm0-15.8-3.6-6.1,3.6-6.2h7.1l3.6,6.2-3.6,6.1Zm0-15.7-3.6-6.2,3.6-6.1h7.1l3.6,6.1-3.6,6.2Zm0-15.8-3.6-6.2,3.6-6.1h7.1l3.6,6.1-3.6,6.2ZM892,328.1l-3.6-6.2,3.6-6.1h7.1l3.5,6.1-3.5,6.2Zm0-15.8-3.6-6.1L892,300h7.1l3.5,6.2-3.5,6.1Zm0-15.8-3.6-6.1,3.6-6.2h7.1l3.5,6.2-3.5,6.1Zm0-15.8-3.6-6.1,3.6-6.2h7.1l3.5,6.2-3.5,6.1Zm0-15.8-3.6-6.1,3.6-6.2h7.1l3.5,6.2-3.5,6.1Zm0-15.8-3.6-6.1,3.6-6.2h7.1l3.5,6.2-3.5,6.1Zm0-15.7-3.6-6.2L892,221h7.1l3.5,6.2-3.5,6.2Zm0-15.8-3.6-6.2,3.6-6.1h7.1l3.5,6.1-3.5,6.2Zm0-15.8-3.6-6.2,3.6-6.1h7.1l3.5,6.1-3.5,6.2Zm0-15.8-3.6-6.2,3.6-6.1h7.1l3.5,6.1-3.5,6.2Zm0-15.8-3.6-6.2,3.6-6.1h7.1l3.5,6.1-3.5,6.2Zm0-15.8-3.6-6.2,3.6-6.1h7.1l3.5,6.1-3.5,6.2Zm0-15.8-3.6-6.1,3.6-6.2h7.1l3.5,6.2-3.5,6.1Zm0-15.8-3.6-6.1,3.6-6.2h7.1l3.5,6.2-3.5,6.1Zm0-15.8-3.6-6.1,3.6-6.2h7.1l3.5,6.2-3.5,6.1Zm0-15.8-3.6-6.1,3.6-6.2h7.1l3.5,6.2-3.5,6.1Zm0-15.8-3.6-6.1,3.6-6.2h7.1l3.5,6.2-3.5,6.1Zm0-47.3-3.6-6.2,3.6-6.1h7.1l3.5,6.1-3.5,6.2ZM850.9,336l-3.5-6.2,3.5-6.1H858l3.6,6.1L858,336Zm0-15.8-3.5-6.2,3.5-6.1H858l3.6,6.1-3.6,6.2Zm0-15.8-3.5-6.1,3.5-6.2H858l3.6,6.2-3.6,6.1Zm0-15.8-3.5-6.1,3.5-6.2H858l3.6,6.2-3.6,6.1Zm0-15.8-3.5-6.1,3.5-6.2H858l3.6,6.2-3.6,6.1Zm0-15.8-3.5-6.1,3.5-6.2H858l3.6,6.2L858,257Zm0-15.8-3.5-6.1,3.5-6.2H858l3.6,6.2-3.6,6.1Zm0-15.7-3.5-6.2,3.5-6.1H858l3.6,6.1-3.6,6.2Zm0-15.8-3.5-6.2,3.5-6.1H858l3.6,6.1-3.6,6.2Zm0-15.8-3.5-6.2,3.5-6.1H858l3.6,6.1-3.6,6.2Zm0-15.8-3.5-6.2,3.5-6.1H858l3.6,6.1-3.6,6.2Zm0-15.8-3.5-6.2,3.5-6.1H858l3.6,6.1-3.6,6.2Zm0-15.8-3.5-6.1,3.5-6.2H858l3.6,6.2-3.6,6.1Zm0-15.8-3.5-6.1,3.5-6.2H858l3.6,6.2-3.6,6.1Zm0-15.8-3.5-6.1,3.5-6.2H858l3.6,6.2-3.6,6.1Zm0-15.8L847.4,93l3.5-6.2H858l3.6,6.2L858,99.1Zm0-15.8-3.5-6.1,3.5-6.2H858l3.6,6.2L858,83.3Zm13.7,229-3.6-6.1,3.6-6.2h7.1l3.6,6.2-3.6,6.1Zm0-15.8-3.6-6.1,3.6-6.2h7.1l3.6,6.2-3.6,6.1Zm0-15.8-3.6-6.1,3.6-6.2h7.1l3.6,6.2-3.6,6.1Zm0-15.8-3.6-6.1,3.6-6.2h7.1l3.6,6.2-3.6,6.1Zm0-15.8L861,243l3.6-6.2h7.1l3.6,6.2-3.6,6.1Zm0-15.7-3.6-6.2,3.6-6.2h7.1l3.6,6.2-3.6,6.2Zm0-15.8-3.6-6.2,3.6-6.1h7.1l3.6,6.1-3.6,6.2Zm0-15.8-3.6-6.2,3.6-6.1h7.1l3.6,6.1-3.6,6.2Zm0-15.8-3.6-6.2,3.6-6.1h7.1l3.6,6.1-3.6,6.2Zm0-15.8L861,164l3.6-6.1h7.1l3.6,6.1-3.6,6.2Zm0-15.8-3.6-6.2,3.6-6.1h7.1l3.6,6.1-3.6,6.2Zm0-15.8-3.6-6.1,3.6-6.2h7.1l3.6,6.2-3.6,6.1Zm0-15.8-3.6-6.1,3.6-6.2h7.1l3.6,6.2-3.6,6.1Zm0-15.8-3.6-6.1,3.6-6.2h7.1l3.6,6.2-3.6,6.1Zm0-15.8L861,85.1l3.6-6.2h7.1l3.6,6.2-3.6,6.1Zm0-15.8L861,69.3l3.6-6.2h7.1l3.6,6.2-3.6,6.1ZM837.3,359.7l-3.5-6.2,3.5-6.1h7.1l3.6,6.1-3.6,6.2Zm0-15.8-3.5-6.2,3.5-6.1h7.1l3.6,6.1-3.6,6.2Zm0-15.8-3.5-6.2,3.5-6.1h7.1l3.6,6.1-3.6,6.2Zm0-15.8-3.5-6.1,3.5-6.2h7.1l3.6,6.2-3.6,6.1Zm0-15.8-3.5-6.1,3.5-6.2h7.1l3.6,6.2-3.6,6.1Zm0-15.8-3.5-6.1,3.5-6.2h7.1l3.6,6.2-3.6,6.1Zm0-15.8-3.5-6.1,3.5-6.2h7.1l3.6,6.2-3.6,6.1Zm0-15.8-3.5-6.1,3.5-6.2h7.1L848,243l-3.6,6.1Zm0-15.7-3.5-6.2,3.5-6.2h7.1l3.6,6.2-3.6,6.2Zm0-15.8-3.5-6.2,3.5-6.1h7.1l3.6,6.1-3.6,6.2Zm0-15.8-3.5-6.2,3.5-6.1h7.1l3.6,6.1-3.6,6.2Zm0-15.8-3.5-6.2,3.5-6.1h7.1l3.6,6.1-3.6,6.2Zm0-15.8-3.5-6.2,3.5-6.1h7.1L848,164l-3.6,6.2Zm0-15.8-3.5-6.2,3.5-6.1h7.1l3.6,6.1-3.6,6.2Zm0-15.8-3.5-6.1,3.5-6.2h7.1l3.6,6.2-3.6,6.1Zm0-15.8-3.5-6.1,3.5-6.2h7.1l3.6,6.2-3.6,6.1Zm0-15.8-3.5-6.1,3.5-6.2h7.1l3.6,6.2-3.6,6.1Zm0-15.8-3.5-6.1,3.5-6.2h7.1l3.6,6.2-3.6,6.1Zm0,284.3-3.5-6.2,3.5-6.1h7.1l3.6,6.1-3.6,6.2Zm-13.7-23.7-3.6-6.2,3.6-6.1h7.1l3.5,6.1-3.5,6.2Zm0-15.8-3.6-6.2,3.6-6.1h7.1l3.5,6.1-3.5,6.2Zm0-15.8L820,314l3.6-6.1h7.1l3.5,6.1-3.5,6.2Zm0-15.8-3.6-6.1,3.6-6.2h7.1l3.5,6.2-3.5,6.1Zm0-15.8-3.6-6.1,3.6-6.2h7.1l3.5,6.2-3.5,6.1Zm0-15.8-3.6-6.1,3.6-6.2h7.1l3.5,6.2-3.5,6.1Zm0-15.8-3.6-6.1,3.6-6.2h7.1l3.5,6.2-3.5,6.1Zm0-15.8-3.6-6.1,3.6-6.2h7.1l3.5,6.2-3.5,6.1Zm0-15.7-3.6-6.2,3.6-6.1h7.1l3.5,6.1-3.5,6.2Zm0-15.8-3.6-6.2,3.6-6.1h7.1l3.5,6.1-3.5,6.2Zm0-15.8-3.6-6.2,3.6-6.1h7.1l3.5,6.1-3.5,6.2Zm0-15.8-3.6-6.2,3.6-6.1h7.1l3.5,6.1-3.5,6.2Zm0-15.8-3.6-6.2,3.6-6.1h7.1l3.5,6.1-3.5,6.2Zm0-15.8-3.6-6.1,3.6-6.2h7.1l3.5,6.2-3.5,6.1Zm0-15.8-3.6-6.1,3.6-6.2h7.1l3.5,6.2-3.5,6.1Zm0-15.8-3.6-6.1,3.6-6.2h7.1l3.5,6.2-3.5,6.1Zm0-15.8L820,93l3.6-6.2h7.1l3.5,6.2-3.5,6.1ZM796.2,588.6l-3.5-6.1,3.5-6.2h7.1l3.6,6.2-3.6,6.1Zm0-284.2-3.5-6.1,3.5-6.2h7.1l3.6,6.2-3.6,6.1Zm0-15.8-3.5-6.1,3.5-6.2h7.1l3.6,6.2-3.6,6.1Zm0-15.8-3.5-6.1,3.5-6.2h7.1l3.6,6.2-3.6,6.1Zm0-15.8-3.5-6.1,3.5-6.2h7.1l3.6,6.2-3.6,6.1Zm0-15.8-3.5-6.1,3.5-6.2h7.1l3.6,6.2-3.6,6.1Zm0-15.7-3.5-6.2,3.5-6.1h7.1l3.6,6.1-3.6,6.2Zm0-15.8-3.5-6.2,3.5-6.1h7.1l3.6,6.1-3.6,6.2Zm0-15.8-3.5-6.2,3.5-6.1h7.1l3.6,6.1-3.6,6.2Zm0-15.8-3.5-6.2,3.5-6.1h7.1l3.6,6.1-3.6,6.2Zm0-15.8-3.5-6.2,3.5-6.1h7.1l3.6,6.1-3.6,6.2Zm0-15.8-3.5-6.1,3.5-6.2h7.1l3.6,6.2-3.6,6.1Zm0-15.8-3.5-6.1,3.5-6.2h7.1l3.6,6.2-3.6,6.1Zm0-15.8-3.5-6.1,3.5-6.2h7.1l3.6,6.2-3.6,6.1Zm0-15.8L792.7,93l3.5-6.2h7.1l3.6,6.2-3.6,6.1Zm13.8,229-3.6-6.2,3.6-6.1h7.1l3.5,6.1-3.5,6.2Zm0-15.8-3.6-6.1L810,300h7.1l3.5,6.2-3.5,6.1Zm0-15.8-3.6-6.1,3.6-6.2h7.1l3.5,6.2-3.5,6.1Zm0-15.8-3.6-6.1,3.6-6.2h7.1l3.5,6.2-3.5,6.1Zm0-15.8-3.6-6.1,3.6-6.2h7.1l3.5,6.2-3.5,6.1Zm0-15.8-3.6-6.1,3.6-6.2h7.1l3.5,6.2-3.5,6.1Zm0-15.7-3.6-6.2L810,221h7.1l3.5,6.2-3.5,6.2Zm0-15.8-3.6-6.2,3.6-6.1h7.1l3.5,6.1-3.5,6.2Zm0-15.8-3.6-6.2,3.6-6.1h7.1l3.5,6.1-3.5,6.2Zm0-15.8-3.6-6.2,3.6-6.1h7.1l3.5,6.1-3.5,6.2Zm0-15.8-3.6-6.2,3.6-6.1h7.1l3.5,6.1-3.5,6.2Zm0-15.8-3.6-6.2,3.6-6.1h7.1l3.5,6.1-3.5,6.2Zm0-15.8-3.6-6.1,3.6-6.2h7.1l3.5,6.2-3.5,6.1Zm0-15.8-3.6-6.1,3.6-6.2h7.1l3.5,6.2-3.5,6.1Zm0-15.8-3.6-6.1,3.6-6.2h7.1l3.5,6.2-3.5,6.1Zm0-15.8-3.6-6.1,3.6-6.2h7.1l3.5,6.2-3.5,6.1ZM782.6,296.5l-3.5-6.1,3.5-6.2h7.1l3.6,6.2-3.6,6.1Zm0-15.8-3.5-6.1,3.5-6.2h7.1l3.6,6.2-3.6,6.1Zm0-15.8-3.5-6.1,3.5-6.2h7.1l3.6,6.2-3.6,6.1Zm0-15.8-3.5-6.1,3.5-6.2h7.1l3.6,6.2-3.6,6.1Zm0-15.7-3.5-6.2,3.5-6.2h7.1l3.6,6.2-3.6,6.2Zm0-15.8-3.5-6.2,3.5-6.1h7.1l3.6,6.1-3.6,6.2Zm0-15.8-3.5-6.2,3.5-6.1h7.1l3.6,6.1-3.6,6.2Zm0-15.8-3.5-6.2,3.5-6.1h7.1l3.6,6.1-3.6,6.2Zm0-15.8-3.5-6.2,3.5-6.1h7.1l3.6,6.1-3.6,6.2Zm0-15.8-3.5-6.2,3.5-6.1h7.1l3.6,6.1-3.6,6.2Zm0-15.8-3.5-6.1,3.5-6.2h7.1l3.6,6.2-3.6,6.1Zm0-15.8-3.5-6.1,3.5-6.2h7.1l3.6,6.2-3.6,6.1Zm0-63.1-3.5-6.2,3.5-6.1h7.1l3.6,6.1-3.6,6.2Zm0-31.6-3.5-6.2,3.5-6.1h7.1l3.6,6.1-3.6,6.2Z" fill="#fff" opacity="0.08"/></svg>